<svg xmlns="http://www.w3.org/2000/svg" viewBox="0 0 1101.87 903.69"><defs><style>.cls-1{fill:#fff;}.cls-12,.cls-2{fill:#569482;}.cls-2{stroke:#569482;}.cls-2,.cls-34,.cls-37{stroke-miterlimit:10;}.cls-10,.cls-11,.cls-12,.cls-13,.cls-14,.cls-15,.cls-16,.cls-17,.cls-18,.cls-19,.cls-2,.cls-20,.cls-21,.cls-22,.cls-23,.cls-24,.cls-25,.cls-26,.cls-27,.cls-28,.cls-29,.cls-3,.cls-5,.cls-6,.cls-7,.cls-8,.cls-9{fill-rule:evenodd;}.cls-3,.cls-34{fill:#7bd4ba;}.cls-4{fill:#848484;}.cls-5{fill:#010100;}.cls-6{fill:#6ab7a1;}.cls-7{fill:#569583;}.cls-8{fill:#7ad4ba;}.cls-9{fill:#69b6a0;}.cls-10{fill:#69b7a1;}.cls-11{fill:#4a7f70;}.cls-13{fill:#69b6a1;}.cls-14{fill:#497f70;}.cls-15{fill:#68b49e;}.cls-16{fill:#6ab7a0;}.cls-17{fill:#4a8070;}.cls-18{fill:#559381;}.cls-19{fill:#010101;}.cls-20{fill:#020202;}.cls-21{fill:#424242;}.cls-22{fill:#4a7f71;}.cls-23,.cls-38{fill:#f6e004;}.cls-24{fill:#f6e003;}.cls-25{fill:#fcfcfc;}.cls-26{fill:#fbfbfb;}.cls-27{fill:#fdfdfd;}.cls-28{fill:#7ad3ba;}.cls-29{fill:#b2b2b2;}.cls-30{font-size:65.74px;font-family:Chalkboard;}.cls-30,.cls-36{fill:#1a1a1a;}.cls-31{letter-spacing:-0.05em;}.cls-32{letter-spacing:-0.08em;}.cls-33{letter-spacing:0em;}.cls-34{font-size:94.43px;stroke:#000;stroke-width:5px;font-family:ChalkboardSE-Bold, Chalkboard SE;font-weight:700;}.cls-35{letter-spacing:0.01em;}.cls-37{fill:none;stroke:#1a1a1a;stroke-width:3px;}.cls-39{fill:#6d06f4;}</style></defs><title>header</title><g id="Ebene_11" data-name="Ebene 11"><path class="cls-1" d="M778.35,283c-196.67-1.92-372.41-14.37-568.28,3.57-58.56,5.37-100.22,37.3-139.33,95.24-19.09,28.28-32.93,64-42.24,99C7.93,558.06,18,613.63,34.75,661.58,50,705.42,75.38,755.87,99.5,795.5c33.7,55.39,85.37,102.37,161.6,113.7,63.07,9.38,123.41-20.07,183.75-37.4,182.49-52.42,403.23,2.47,568.13-78.7,78.91-38.84,80.79-114.27,91.65-187.42s30.46-142.47-34.92-194.78c-34.77-27.82-81.16-41.17-121.92-65.78C885.5,307.5,818.59,304,750.19,294.55" transform="translate(-15.5 -8.8)"/><path class="cls-1" d="M778.35,281.49c-113.7-1.13-227.36-6.12-341.08-6-56.44.07-112.88,1.46-169.21,5.07q-21.59,1.38-43.13,3.19c-11.55,1-23.12,1.84-34.49,4.19a155.36,155.36,0,0,0-52.73,21.61C120.34,320.78,105.26,335.2,92,351c-15.6,18.53-29.33,38.71-39.9,60.53C29.82,457.43,16,509.83,15.51,561c-.38,42,10,82.51,25.41,121.37a738,738,0,0,0,33.47,71.87c11,20.71,22.4,41.44,36,60.55,23.89,33.53,55.21,61.94,92.92,79a211.77,211.77,0,0,0,63.56,17.63c25.91,2.92,52.05-.62,77.23-6.81,26.17-6.44,51.52-15.66,77.12-24A586.37,586.37,0,0,1,492.76,862c49-9.33,98.9-12.67,148.66-14.56,96.8-3.68,195.77-.41,290.52-23.79a418.77,418.77,0,0,0,65-21.55c19.77-8.48,38.68-18.61,54.24-33.71,27.64-26.84,39.4-63.95,45.94-101,3.43-19.4,5.68-39,8.52-58.48,3.12-21.51,7.16-42.9,9.71-64.5,4.59-39,2.87-79.56-22-111.9-30.44-39.49-80.68-55.14-123.45-77-12-6.09-23.23-13.32-35.11-19.51a273.22,273.22,0,0,0-34.55-15c-24.3-8.66-49.63-14-75.07-18-24.78-3.88-49.72-6.56-74.55-10-1.89-.26-2.71,2.63-.8,2.89,49.92,6.87,100.88,10.78,148.74,27.66A266.76,266.76,0,0,1,935,339.58c11.25,6,22,12.8,33.38,18.6,21.86,11.17,44.63,20.48,66.31,32,21.2,11.3,41.62,25.08,56.4,44.32,12.64,16.47,19.94,36.09,22.38,56.63,4.85,41-5.84,82.41-11.51,122.75-5.29,37.7-8.66,77.1-24.8,112.11a133.15,133.15,0,0,1-33.44,45.2c-17.09,14.82-37.87,24.42-58.76,32.62-88,34.55-185.08,36.28-278.34,38.7-95.86,2.48-192.28,4.88-284.32,34.64-49.22,15.91-99.73,36.55-152.51,31.58-44.34-4.18-86.5-23.76-119.5-53.42S95,787.33,74.74,748.44c-21.26-40.79-40.87-83.88-50.4-129.12-9.87-46.91-6.21-94.85,6.35-140.89C44,429.48,65.85,384.26,100,346.36c27.32-30.36,61.84-52,102.77-57.47,27.42-3.68,55.43-4.84,83-6.39q41.16-2.29,82.37-3.2c109.34-2.5,218.67,1.53,328,3.86q41.11.87,82.23,1.33a1.5,1.5,0,0,0,0-3Z" transform="translate(-15.5 -8.8)"/></g><g id="Anmalen"><g id="Ebene_14" data-name="Ebene 14"><polygon class="cls-2" points="285 396.7 915 382.7 916 418.7 923 443.7 868 663.7 850 723.7 835 755.7 725 763.7 512 773.7 339 776.7 205 776.7 136 773.7 137 693.7 145 687.7 169 618.7 229 506.7 267 434.7 285 396.7"/></g><g id="Ebene_15" data-name="Ebene 15"><path class="cls-1" d="M431.08,784.9c3.28-7,6.75-13.94,9.73-21.06,3.05-7.3,4.42-15.39,9-22,1.1-1.6-1.5-3.1-2.59-1.52-4.09,5.92-5.5,12.87-8,19.51-3,8-7.06,15.75-10.7,23.52-.81,1.74,1.78,3.27,2.59,1.52Z" transform="translate(-15.5 -8.8)"/><path class="cls-1" d="M510,783.92c3.87-6.81,8.55-13.61,11.34-20.95s3.18-15.64,8.15-22.06c1.17-1.51-.94-3.65-2.12-2.13-4.38,5.66-5.6,12.26-7.51,19-2.52,8.86-7.94,16.69-12.45,24.64a1.5,1.5,0,0,0,2.59,1.51Z" transform="translate(-15.5 -8.8)"/><path class="cls-1" d="M512.07,778.67c.3-7.5,7-16.41,11.31-22.29,1.13-1.57-1.47-3.06-2.59-1.52-4.72,6.49-11.39,15.48-11.72,23.81-.07,1.93,2.93,1.93,3,0Z" transform="translate(-15.5 -8.8)"/><path class="cls-1" d="M594.74,780c2-7.39,7.38-13,10.39-19.92,3.15-7.29,3.59-15.43,8-22.18,1.07-1.61-1.53-3.12-2.59-1.51-4.32,6.54-4.92,14.25-7.74,21.4-3,7.55-8.82,13.49-11,21.42a1.5,1.5,0,0,0,2.9.79Z" transform="translate(-15.5 -8.8)"/><path class="cls-1" d="M683.75,775.12c-.47-3.75,2.23-7,3.73-10.28,1.12-2.45,2.09-5,3-7.49,2.3-6.33,4.3-12.71,7.53-18.64.92-1.7-1.67-3.22-2.59-1.52-3.35,6.17-5.44,12.79-7.83,19.36A92.17,92.17,0,0,1,683,767.14c-1.38,2.68-2.62,4.87-2.23,8,.24,1.89,3.24,1.92,3,0Z" transform="translate(-15.5 -8.8)"/><path class="cls-1" d="M760.23,770.58c.44-5.31,3.95-10.22,6-15.06a109.07,109.07,0,0,0,4.61-13.35,1.5,1.5,0,0,0-2.89-.8,104.11,104.11,0,0,1-6.17,16.78c-2,4.13-4.16,7.81-4.54,12.43-.16,1.93,2.84,1.92,3,0Z" transform="translate(-15.5 -8.8)"/><path class="cls-1" d="M761.26,773.72a58.33,58.33,0,0,1,4.34-16.87c.75-1.75-1.83-3.28-2.59-1.51a63.29,63.29,0,0,0-4.75,18.38c-.2,1.92,2.8,1.91,3,0Z" transform="translate(-15.5 -8.8)"/><path class="cls-1" d="M356,786.48c2.15-.69,2.69-2.3,3.62-4.24,2.12-4.41,4.11-8.87,6.17-13.3l11.92-25.71c.8-1.74-1.78-3.26-2.59-1.51L365.24,763l-4.93,10.64c-.92,2-3.08,9.31-5.12,10-1.83.59-1.05,3.49.8,2.89Z" transform="translate(-15.5 -8.8)"/><path class="cls-1" d="M286.73,786.16q9.94-22,20.65-43.63c.85-1.73-1.73-3.25-2.59-1.52q-10.71,21.65-20.65,43.63c-.79,1.75,1.79,3.28,2.59,1.52Z" transform="translate(-15.5 -8.8)"/><path class="cls-1" d="M212.71,786.77a453.14,453.14,0,0,1,24.94-47.26c1-1.66-1.59-3.16-2.59-1.51a452.14,452.14,0,0,0-24.94,47.26c-.79,1.74,1.8,3.27,2.59,1.51Z" transform="translate(-15.5 -8.8)"/><path class="cls-1" d="M346.75,499.24c5.84-16.13,15.38-30.76,24.45-45.22,1-1.64-1.57-3.15-2.6-1.51-9.21,14.69-18.8,29.54-24.74,45.93-.66,1.82,2.23,2.6,2.89.8Z" transform="translate(-15.5 -8.8)"/><path class="cls-1" d="M415.77,495.3,434,453.57c.77-1.76-1.82-3.29-2.59-1.52l-18.21,41.73c-.76,1.75,1.82,3.28,2.59,1.52Z" transform="translate(-15.5 -8.8)"/><path class="cls-1" d="M488.63,488.68c1.14-6.29,5-12.7,7.63-18.5q4.11-9,8.47-17.82c.85-1.73-1.74-3.25-2.59-1.52q-4.77,9.71-9.25,19.54c-2.51,5.53-6.06,11.49-7.15,17.51-.34,1.88,2.55,2.69,2.89.79Z" transform="translate(-15.5 -8.8)"/><path class="cls-1" d="M567.28,471.64c-.14-7.73,6.61-15.92,10.35-22.38a1.5,1.5,0,0,0-2.59-1.51c-4.13,7.13-10.92,15.27-10.76,23.89,0,1.92,3,1.93,3,0Z" transform="translate(-15.5 -8.8)"/><path class="cls-1" d="M644.41,469.61c1.44-4.28,3.88-8.06,5.65-12.19,1.47-3.45,2.12-7.15,4.08-10.38,1-1.65-1.59-3.16-2.59-1.51-2.23,3.66-2.93,7.9-4.72,11.77s-4,7.47-5.31,11.51c-.62,1.84,2.27,2.62,2.89.8Z" transform="translate(-15.5 -8.8)"/><path class="cls-1" d="M714,482.86c4-13.69,8.23-27.41,16.7-39.09,1.13-1.57-1.47-3.07-2.59-1.52-8.62,11.89-12.92,25.89-17,39.81a1.5,1.5,0,0,0,2.89.8Z" transform="translate(-15.5 -8.8)"/><path class="cls-1" d="M788.32,485.71c.6-4.43,3.06-8.11,4.85-12.12,1.37-3,2.54-6.19,3.61-9.35,2.56-7.55,4-16.14,8.37-22.89,1.05-1.62-1.55-3.13-2.59-1.51-4.24,6.52-5.73,14.63-8.12,21.93a96.39,96.39,0,0,1-5,12.68c-1.69,3.47-3.51,6.59-4,10.47-.26,1.88,2.63,2.7,2.89.79Z" transform="translate(-15.5 -8.8)"/><path class="cls-1" d="M853.69,488.67c.92-3.8,2.79-7.14,4.3-10.71,1.79-4.22,2.62-8.72,3.84-13.12a256.64,256.64,0,0,1,9.06-25.5c.71-1.8-2.19-2.58-2.9-.8a256.57,256.57,0,0,0-9,25.5c-1.2,4.35-2,8.77-3.8,12.93-1.54,3.66-3.4,7-4.34,10.9-.46,1.88,2.44,2.68,2.89.8Z" transform="translate(-15.5 -8.8)"/></g><polyline class="cls-3" points="306 491.7 273 544.7 255 547.7 250 541.7 222 580.7 236 628.7 216 683.7 816 681.7 828 606.7 847 532.7 862 482.7 676 475.7 503 478.7 367 488.7"/><g id="Ebene_13" data-name="Ebene 13"><path class="cls-1" d="M344.23,499.75a42.4,42.4,0,0,1-7.43,14.15c-1.19,1.49.92,3.63,2.12,2.12a46.29,46.29,0,0,0,8.2-15.47c.57-1.85-2.33-2.64-2.89-.8Z" transform="translate(-15.5 -8.8)"/><path class="cls-1" d="M337.73,515a11.73,11.73,0,0,1-2.89,6.49l2.51,1.46c.51-1.77,1.07-3.5,1.66-5.24a1.51,1.51,0,0,0-2.74-1.16q-14,27.4-26,55.74c-.74,1.75,1.84,3.28,2.59,1.51q12-28.32,26-55.73l-2.74-1.16c-.6,1.74-1.15,3.48-1.67,5.24-.4,1.38,1.52,2.62,2.51,1.46a15.52,15.52,0,0,0,3.77-8.61c.24-1.91-2.76-1.89-3,0Z" transform="translate(-15.5 -8.8)"/><path class="cls-1" d="M301.44,592.78c-8.23,17.08-16.47,34.16-24.22,51.46q-5.4,12-10.43,24.25c-3.51,8.52-6.33,17.51-11.44,25.25-1.07,1.61,1.53,3.12,2.59,1.51,4.56-6.9,7.2-14.77,10.28-22.39,3.69-9.12,7.58-18.14,11.59-27.11,7.76-17.3,16-34.38,24.22-51.45.84-1.73-1.75-3.26-2.59-1.52Z" transform="translate(-15.5 -8.8)"/><path class="cls-1" d="M257.35,692c6.31-11.65,12.14-23.3,16.22-35.94,3.92-12.15,7.37-24.8,16.34-34.33,1.32-1.41-.79-3.53-2.12-2.12-8.23,8.74-12.12,20-15.69,31.19a228.27,228.27,0,0,1-17.34,39.69c-.92,1.7,1.67,3.21,2.59,1.51Z" transform="translate(-15.5 -8.8)"/><path class="cls-1" d="M328.35,691.73c4.77-10.36,9.85-20.64,14.11-31.22,4.36-10.84,7.17-22.24,12.34-32.75.85-1.72-1.73-3.25-2.59-1.51-4.77,9.69-7.59,20.1-11.37,30.18-4.32,11.53-9.94,22.62-15.08,33.79-.81,1.74,1.78,3.27,2.59,1.51Z" transform="translate(-15.5 -8.8)"/><path class="cls-1" d="M348.41,648.23a31.06,31.06,0,0,1,6.95-17.75c1.21-1.48-.9-3.62-2.12-2.12a34.51,34.51,0,0,0-7.83,19.87c-.12,1.93,2.88,1.92,3,0Z" transform="translate(-15.5 -8.8)"/><path class="cls-1" d="M353.33,628.53a70.3,70.3,0,0,1-7.65,18.4,1.5,1.5,0,0,0,2.59,1.51,73.28,73.28,0,0,0,8-19.11,1.51,1.51,0,0,0-2.9-.8Z" transform="translate(-15.5 -8.8)"/><path class="cls-1" d="M367,604.07c10-15.81,13.7-34.41,21.87-51.09.84-1.73-1.74-3.25-2.59-1.52-8.17,16.68-11.87,35.3-21.87,51.1-1,1.64,1.56,3.14,2.59,1.51Z" transform="translate(-15.5 -8.8)"/><path class="cls-1" d="M399.83,529c2-5.39,5.83-9.82,8-15.18,2.41-6.05,4.58-12.2,6.86-18.31.68-1.81-2.22-2.59-2.89-.79-2.34,6.27-4.51,12.64-7.08,18.82-2.14,5.15-5.8,9.43-7.75,14.66-.67,1.82,2.23,2.6,2.9.8Z" transform="translate(-15.5 -8.8)"/><path class="cls-1" d="M482.41,491.72v3.08a1.5,1.5,0,0,0,3,0v-3.08a1.5,1.5,0,0,0-3,0Z" transform="translate(-15.5 -8.8)"/><path class="cls-1" d="M484.91,494.32,487.1,489a1.5,1.5,0,0,0-1-1.85,1.55,1.55,0,0,0-1.85,1.05L482,493.52a1.5,1.5,0,0,0,1,1.84,1.54,1.54,0,0,0,1.85-1Z" transform="translate(-15.5 -8.8)"/><path class="cls-1" d="M472.48,520.92a1.5,1.5,0,0,0,0-3,1.5,1.5,0,0,0,0,3Z" transform="translate(-15.5 -8.8)"/><path class="cls-1" d="M457.41,557.5a298.61,298.61,0,0,0,16.35-36c.68-1.81-2.22-2.6-2.9-.8a292.15,292.15,0,0,1-16,35.26c-.92,1.7,1.67,3.22,2.59,1.52Z" transform="translate(-15.5 -8.8)"/><path class="cls-1" d="M425.12,632.86c.36-5.14,4.51-9.74,6.67-14.31,1.61-3.43,3-7,4.25-10.55,3.1-8.65,5.79-17.42,10.46-25.4a1.5,1.5,0,0,0-2.59-1.51c-4.8,8.2-7.58,17.22-10.77,26.11a90.68,90.68,0,0,1-6.26,14.32c-2.13,3.75-4.46,6.93-4.76,11.34-.14,1.93,2.86,1.92,3,0Z" transform="translate(-15.5 -8.8)"/><path class="cls-1" d="M401.32,690.91c2.07-11.75,9.81-21.34,13.17-32.67.55-1.86-2.35-2.65-2.9-.8-3.36,11.34-11.08,20.89-13.17,32.68-.33,1.88,2.56,2.69,2.9.79Z" transform="translate(-15.5 -8.8)"/><path class="cls-1" d="M409.27,659.77c-2.26,7.5-6.36,14.75-9.61,21.87-.8,1.74,1.78,3.27,2.59,1.52,3.37-7.39,7.57-14.81,9.92-22.6.56-1.85-2.34-2.64-2.9-.79Z" transform="translate(-15.5 -8.8)"/><path class="cls-1" d="M471.48,690.77a67.74,67.74,0,0,1,8.44-17.15c1.09-1.6-1.51-3.11-2.59-1.52A70.48,70.48,0,0,0,468.59,690c-.6,1.84,2.3,2.63,2.89.79Z" transform="translate(-15.5 -8.8)"/><path class="cls-1" d="M491.63,646.32A190.29,190.29,0,0,1,502.75,623a1.5,1.5,0,0,0-2.59-1.52,195.2,195.2,0,0,0-11.42,24c-.72,1.8,2.18,2.57,2.89.8Z" transform="translate(-15.5 -8.8)"/><path class="cls-1" d="M512.39,598.05a41.76,41.76,0,0,1,6.38-16.66c1.06-1.62-1.54-3.13-2.59-1.51a43.76,43.76,0,0,0-6.68,17.37c-.29,1.89,2.6,2.7,2.89.8Z" transform="translate(-15.5 -8.8)"/><path class="cls-1" d="M530.38,555.81a83,83,0,0,1,8.91-21.56,1.5,1.5,0,0,0-2.59-1.52A85.8,85.8,0,0,0,527.49,555c-.49,1.87,2.41,2.67,2.89.8Z" transform="translate(-15.5 -8.8)"/><path class="cls-1" d="M535.29,547.93a44.34,44.34,0,0,1,3.59-12.35c.8-1.74-1.79-3.27-2.59-1.51a47,47,0,0,0-3.89,13.07c-.27,1.88,2.62,2.7,2.89.79Z" transform="translate(-15.5 -8.8)"/><path class="cls-1" d="M550.7,509.68a34.08,34.08,0,0,1,4.47-12.33,1.5,1.5,0,0,0-2.59-1.51,36.27,36.27,0,0,0-4.77,13.05c-.3,1.88,2.59,2.7,2.89.79Z" transform="translate(-15.5 -8.8)"/><path class="cls-1" d="M628.51,506.16a32,32,0,0,1,4-11,1.5,1.5,0,0,0-2.59-1.51,34.28,34.28,0,0,0-4.32,11.74c-.32,1.89,2.57,2.7,2.9.8Z" transform="translate(-15.5 -8.8)"/><path class="cls-1" d="M607.84,554.54c1.24-7.73,6.85-15.27,10.57-22,.93-1.7-1.66-3.21-2.59-1.52-3.9,7.1-9.57,14.64-10.87,22.77-.3,1.89,2.59,2.71,2.89.8Z" transform="translate(-15.5 -8.8)"/><path class="cls-1" d="M590.38,597.7c.27-3.92,2.8-7.36,4.71-10.68l5.17-9a1.5,1.5,0,0,0-2.59-1.52c-2.22,3.88-4.44,7.74-6.65,11.62-1.78,3.1-3.39,6-3.64,9.61-.14,1.93,2.86,1.92,3,0Z" transform="translate(-15.5 -8.8)"/><path class="cls-1" d="M594,576.28q-2.37,6.72-5.35,13.19c-.81,1.75,1.78,3.27,2.59,1.52q3.15-6.82,5.66-13.92c.64-1.82-2.26-2.6-2.9-.79Z" transform="translate(-15.5 -8.8)"/><path class="cls-1" d="M577.73,620.76a124.15,124.15,0,0,0-12.66,28c-.57,1.85,2.32,2.64,2.9.8a121.16,121.16,0,0,1,12.35-27.24c1-1.65-1.59-3.16-2.59-1.51Z" transform="translate(-15.5 -8.8)"/><path class="cls-1" d="M556.4,670.74A71.92,71.92,0,0,0,549,686.59c-.6,1.84,2.29,2.62,2.89.79a67.75,67.75,0,0,1,7.1-15.12c1-1.64-1.57-3.15-2.6-1.52Z" transform="translate(-15.5 -8.8)"/><path class="cls-1" d="M631.67,688.64c1-6.26,5.33-12.07,8-17.8,2.4-5.22,4.51-10.55,6.41-16,.64-1.83-2.25-2.61-2.89-.8a174.89,174.89,0,0,1-7.71,18.64c-2.39,4.92-5.79,9.66-6.66,15.14-.3,1.89,2.59,2.7,2.89.79Z" transform="translate(-15.5 -8.8)"/><path class="cls-1" d="M656.23,626.35c4.22-8.46,8.46-17,11.61-25.88,3.26-9.23,5.13-18.9,10-27.51a1.5,1.5,0,0,0-2.59-1.52c-4.39,7.79-6.42,16.37-9.13,24.81-3.2,9.93-7.81,19.27-12.46,28.59-.86,1.72,1.73,3.24,2.59,1.51Z" transform="translate(-15.5 -8.8)"/><path class="cls-1" d="M688.8,547.08c.91-6,5.3-11.53,7.55-17.2,2.43-6.13,3.6-12.75,6.89-18.52a1.5,1.5,0,0,0-2.59-1.52c-3.16,5.54-4.38,11.74-6.58,17.66-2.33,6.25-7.16,12.15-8.16,18.78-.29,1.89,2.6,2.7,2.89.8Z" transform="translate(-15.5 -8.8)"/><path class="cls-1" d="M779.66,509.17q3.6-10.69,8.22-21c.78-1.74-1.8-3.27-2.59-1.51q-4.78,10.67-8.53,21.73c-.62,1.83,2.28,2.62,2.9.79Z" transform="translate(-15.5 -8.8)"/><path class="cls-1" d="M750.12,590.48c6.12-17.49,11.45-35.6,19.36-52.38.82-1.74-1.77-3.26-2.59-1.52-8,17-13.46,35.36-19.66,53.11-.64,1.82,2.26,2.61,2.89.79Z" transform="translate(-15.5 -8.8)"/><path class="cls-1" d="M714.88,689.82q13.07-37.27,26.56-74.4c.66-1.82-2.24-2.6-2.89-.8Q725.05,651.75,712,689c-.64,1.83,2.26,2.61,2.9.8Z" transform="translate(-15.5 -8.8)"/><path class="cls-1" d="M788.75,688.81q8-26.35,16.06-52.71c5.2-16.93,10.73-33.77,18.8-49.58.88-1.71-1.71-3.23-2.59-1.51-7.91,15.48-13.45,32-18.56,48.53-5.59,18.14-11.07,36.31-16.6,54.47-.57,1.86,2.33,2.65,2.89.8Z" transform="translate(-15.5 -8.8)"/><path class="cls-1" d="M805.9,633.14a75.82,75.82,0,0,1,7.49-17.44,1.5,1.5,0,0,0-2.59-1.51A79.41,79.41,0,0,0,803,632.34a1.5,1.5,0,0,0,2.89.8Z" transform="translate(-15.5 -8.8)"/><path class="cls-1" d="M832.45,554l22.2-64.56c.63-1.83-2.27-2.62-2.9-.8l-22.19,64.56c-.63,1.83,2.26,2.62,2.89.8Z" transform="translate(-15.5 -8.8)"/></g><g id="Ebene_16" data-name="Ebene 16"><polygon class="cls-4" points="183.5 791.2 190.5 791.2 193.5 798.2 183.5 817.2 178.5 820.2 173.5 815.2 183.5 791.2"/><polygon class="cls-4" points="258.5 791.2 265.5 791.2 268.5 798.2 258.5 817.2 253.5 820.2 248.5 815.2 258.5 791.2"/><polygon class="cls-4" points="404.5 784.2 411.5 784.2 414.5 791.2 404.5 810.2 399.5 813.2 394.5 808.2 404.5 784.2"/><polygon class="cls-4" points="569.5 781.2 576.5 781.2 579.5 788.2 569.5 807.2 564.5 810.2 559.5 805.2 569.5 781.2"/><polygon class="cls-4" points="883.5 330.2 879.5 334.2 873.5 353.2 876.5 356.2 883.5 356.2 888.5 334.2 883.5 330.2"/><polygon class="cls-4" points="822.5 327.2 818.5 331.2 812.5 350.2 815.5 353.2 822.5 353.2 827.5 331.2 822.5 327.2"/><polygon class="cls-4" points="679.39 336.11 674.58 339.09 664.42 356.23 666.66 359.84 673.48 361.43 683.35 341.14 679.39 336.11"/><polygon class="cls-4" points="528.5 338.2 524.5 342.2 518.5 361.2 521.5 364.2 528.5 364.2 533.5 342.2 528.5 338.2"/></g></g><g id="Ebene_10" data-name="Ebene 10"><path class="cls-5" d="M883.28,321.44a3.32,3.32,0,0,1-2.35-2.76,138.45,138.45,0,0,0-4.47-16.85c-8.15-25.41-21.68-47.17-43.45-63.17-2.75-2-4.19-4.14-3.88-7.36.28-3-1-3.47-3.72-3.44-11,.16-22,.07-33,.06-1.15,0-2.39.41-2.42-1.66-.09-5.81-.7-11.61-.05-17.45.22-2,.67-2.73,2.79-2.78,10.23-.26,20.46-.57,30.69-1.11,7-.37,14.09-.1,21.1-1,3.58-.47,4.26-1.21,4.26-4.88,0-.76,0-1.51,0-2.26-.43-21.9-1.06-43.79-1.24-65.69-.11-13.81.6-27.63.63-41.45a110.88,110.88,0,0,0-1.54-21c-.88-4.6-3.51-6.93-7.93-6.87-11.84.14-23.69.31-35.52.72-10.15.36-20.3.43-30.45.51-1.69,0-1.77-.65-1.64-2,.6-5.72.58-5.73,6.48-5.78h.28a32.26,32.26,0,0,0,21.05-8.25c5.7-5,7.5-15.67,3.7-24.1-7.09-15.74-22.53-18.25-34-7a57.64,57.64,0,0,0-5.75,6.89c-3.86-3.44-7.24-7.12-11.17-10.2a16.57,16.57,0,0,0-15.4-2.92c-9.21,2.53-15.87,12.13-16.08,22.8-.15,7.82,2.9,13.68,9.68,17.82,5.75,3.51,12.08,4.4,18.53,5.14,4.8.55,4.63.61,5.14,5.36.29,2.65-.86,3.14-3.06,3.2-10.8.33-21.6.73-32.4,1.11-9.2.33-18.41.59-27.6,1-3.69.17-4.65,1.22-4.65,4.93,0,7.61.11,15.23.28,22.84.39,17.58,1.11,35.15.73,52.74-.37,17-1.09,34,.12,51,.56,7.8,4.11,11.07,11.9,10.92,14.09-.28,28.18-.35,42.27-.61,1.9,0,2.72.53,2.8,2.4.21,5.53.63,11.05,0,16.6-.25,2.29-1.12,2.87-3.36,2.85-11-.12-22-.06-33-.05-4.67,0-4.87,0-4.7,4.54a8.53,8.53,0,0,1-3.53,7.48,96.12,96.12,0,0,0-19.94,22.85c-11.46,18-17.89,37.7-20.69,58.71-.33,2.48-1.11,4-3.6,5.26-10.53,5.18-17.64,19.07-16.19,30.86.24,1.93,1,3.48,3.06,3.88,4,.75,7.91,1.64,11.91,2.07,4.16.45,4.68-.14,5.33-4.2a33.93,33.93,0,0,1,3.09-10.17c1.18-2.28,2.56-4.32,5.44-4.15s4,2.38,5.07,4.66c1.91,4.07,1.1,8.09-.11,12.08-.72,2.35.21,3.57,2.36,4.22a43.22,43.22,0,0,0,4.63,1.09c1.41-5.43,3.38-10.88,7-15.22a3.69,3.69,0,0,1,1-.8c0-.25.1-.5.14-.75a4.23,4.23,0,0,1,1.36-2.68,4.8,4.8,0,0,1,3.37-4.89c0-.16,0-.31-.08-.47-1.23-6.16-3.53-11.73-9.64-14.72-1.23-.6-.82-1.55-.73-2.42A125.37,125.37,0,0,1,698.48,277a15,15,0,0,1,5-5.55c0,4.93,0,9.33,0,13.73q-.09,27.38-.18,54.74c0,5.64.17,11.27.19,16.91,0,2.13.59,3.07,3,2.94,4.5-.25,9,0,13.54-.1,1.44,0,2,.33,2,1.86,0,2.81.26,5.62.37,8.44.34,8.86.66,17.71,1,26.57,8,.1,16,.28,23.94.43q-.62-17.28-1.36-34.55c-.09-2.13.45-2.78,2.69-2.85q18.3-.51,36.6-1.45c1.92-.11,2.08.39,2.22,2,1,11.43,1.57,22.87,1.86,34.32,7.94-.06,15.88-.45,23.82-.4q-.66-17.48-1.37-35c-.06-1.44.37-2,1.89-2,4.41,0,8.83-.41,13.23-.3a7.9,7.9,0,0,0,1.14-.05,5.25,5.25,0,0,1,2.13-6.5c-.1-26.55-.08-53.1-.08-79.65a5.71,5.71,0,0,1,.37-3.1,18.88,18.88,0,0,1,2.14,1.61,34.5,34.5,0,0,1,3.62,3.94,124.89,124.89,0,0,1,21.44,49.7,2.39,2.39,0,0,1-1.12,2.81,14.9,14.9,0,0,0-5.85,7.07c-3.73,10.62-2.65,20.88,2.85,30.65a4.28,4.28,0,0,0,5.28,2.19c2.35-.67,4.75-1.15,7.07-1.89,4.92-1.55,5.2-2.11,3.42-7.06-1.39-3.87-1.65-7.68.18-11.47,2.28-4.71,5.4-5.16,8.87-1.25A20.32,20.32,0,0,1,883.3,355c.47,3.5,1.36,4.5,4.33,4.06,2.15-5.86,5.08-11.38,7.3-17.21a5.19,5.19,0,0,1,5.67-3.33C897.55,330.93,892.07,325,883.28,321.44Z" transform="translate(-15.5 -8.8)"/><path class="cls-3" d="M691.91,197.14a124.76,124.76,0,0,1-1.12-17.7c-.25-14.56.4-29.12.78-43.68a455.31,455.31,0,0,0-1.05-47.6c-.42-5.26-.14-10.52,0-15.78,0-1.73,1-1.65,2.21-1.69l53.51-1.76c21.7-.72,43.38-1.47,65.07-2.12,8.17-.24,16.33-.86,24.52-.6,5.56.17,6.24.9,6.74,6.66a352.08,352.08,0,0,1,.71,37.18c-.45,21.6-1.38,43.21,0,64.82.4,6.47,1,12.92.42,19.41-.86.93-2,.91-3.14.94q-3.11.09-6.2,0c-15.7-.4-31.39.3-47.07.74-15,.42-30.08-.08-45.1.46-10.13.37-20.26.83-30.38,1.48-5.73.37-11.46.13-17.2.1A3.6,3.6,0,0,1,691.91,197.14Z" transform="translate(-15.5 -8.8)"/><path class="cls-3" d="M708.84,234.49c11.55-.06,23.11,0,34.66-.19,19.62-.28,39.22-1,58.83-1.82,6.74-.3,13.51,0,20.26-.09,1.75,0,1.69,1,1.72,2.16.22,8.07.64,16.14.67,24.21.11,28.38.1,56.75.12,85.13,0,.37-.06.75-.09,1.12a3.94,3.94,0,0,1-2.87.93c-5.9.44-11.81.84-17.7,1-6.76.19-13.51.67-20.27.78-16.72.27-33.42.77-50.13,1.19-7.31.19-14.63.68-21.94,1-4,.15-4.12-.18-4.12-4.08q0-54,0-108C708,236.67,707.41,235.29,708.84,234.49Z" transform="translate(-15.5 -8.8)"/><path class="cls-6" d="M774.79,50.45c-8.78-.48-7.17.36-8.24,7.33a21.39,21.39,0,0,0-.29,3.09c0,2-.91,2.64-2.93,2.63-4.82,0-4.82.09-5.32-4.76-.84-8.2-.84-8.22-9-8.26a34.93,34.93,0,0,1-13.17-2.63c-11.13-4.52-14.63-16.09-7.93-26.16,6.53-9.82,16.32-10.79,24.72-2.52a58.87,58.87,0,0,1,6.46,8.17c2.73,3.84,3.57,3.85,6.25.09a62.08,62.08,0,0,1,6-7.79c4.83-4.91,10.41-7.81,17.21-4.93,7,3,10.51,8.83,11.12,16.34.81,10-5.08,15.56-16.23,18.71A29.29,29.29,0,0,1,774.79,50.45Z" transform="translate(-15.5 -8.8)"/><path class="cls-7" d="M691.91,197.14c10.71.29,21.42,0,32.09-.7,12.84-.82,25.67-.9,38.52-1,14.74-.12,29.49,0,44.21-.69,12.3-.54,24.59-.19,36.88-.46.36,5.13.35,5.06-4.72,5.22-27.48.86-55,1.79-82.45,2.62-17.07.52-34.15.88-51.23,1.32-2.44.06-4.88.32-7.31.21C692.56,203.4,691.89,202.6,691.91,197.14Z" transform="translate(-15.5 -8.8)"/><path class="cls-7" d="M708.84,234.49c-.72,1-.52,2.16-.52,3.27q0,54-.06,108c0,2.48.5,3.43,3.21,3.32,12.74-.56,25.48-1.19,38.24-1.37,4.47-.06,9-.27,13.48-.37,9.57-.23,19.14-.3,28.71-.66,11-.42,22.07-1.09,33.11-1.65.39,7.09.39,7.07-6.66,7.19-21.31.36-42.59,1.73-63.89,2.4-13,.41-25.91.77-38.88.41-.93,0-1.86-.17-2.79-.25-4.75-.44-4.86-.44-4.89-5.08q-.14-20.85-.11-41.72,0-35.23,0-70.48C707.83,236.48,706.89,234.92,708.84,234.49Z" transform="translate(-15.5 -8.8)"/><path class="cls-8" d="M686.62,353.59a3.69,3.69,0,0,1,1-.8c0-.25.1-.5.14-.75a4.88,4.88,0,0,1,.71-2,29.83,29.83,0,0,0-2.84-11.42c-2.19-4.74-5.22-6-10.25-4.72a20.46,20.46,0,0,1-12.73-.62,8.14,8.14,0,0,0-8.46,1.28,25.6,25.6,0,0,0-10.29,19.54c-.33,5.05-.08,5.21,5.12,5.59a2.48,2.48,0,0,0,1.29-2.33,18.08,18.08,0,0,1,1-4.37A16.41,16.41,0,0,1,668,341.38c1.51.05,3,.19,4,1.56,3.37,3,5.77,6.55,6.39,11.12.42,1.26.13,2.56.2,3.84,0,.66,0,1.44.73,1.65,1,.28,2,.68,3.07.95A29.09,29.09,0,0,1,686.62,353.59Z" transform="translate(-15.5 -8.8)"/><path class="cls-8" d="M891.35,346.39a3,3,0,0,0,1.16,1.19c.85-1.91,1.68-3.83,2.42-5.78A5.47,5.47,0,0,1,896,340,24.89,24.89,0,0,0,885.73,328a7.8,7.8,0,0,0-8.46-.39,17.5,17.5,0,0,1-11.71,1.84,33.7,33.7,0,0,0-3.64-.25,5.85,5.85,0,0,0-6.19,3.92c-3.43,8.17-3.65,16.33.43,24.39,2.92.89,5.42-.17,7.8-1.73a19.71,19.71,0,0,1,1.13-12.56c2.47-5.3,6-7.3,11.32-6.54a36.57,36.57,0,0,1,9.39,3.59A15.65,15.65,0,0,1,891.35,346.39Z" transform="translate(-15.5 -8.8)"/><path class="cls-9" d="M766.64,229.81c-5.15,0-10.31,0-15.46,0-.91,0-2.28.6-2.17-1.21.08-1.46-.73-3.41,1.75-3.73,3.15-.4,6.31-.89,9.48-1.07,7.31-.42,14.61-.92,21.93-.43a3.11,3.11,0,0,1,2.7,4.62c-.43,1-1.24.7-1.93.7-5.43,0-10.87,0-16.3,0Z" transform="translate(-15.5 -8.8)"/><path class="cls-10" d="M676.38,315.06a13.66,13.66,0,0,1-5-.86c-5.39-2-6.17-3.51-4.52-9,.68-2.27.48-5.71,2.36-6.46,1.55-.61,4.19,1.47,6.32,2.41,6.08,2.68,6.08,2.69,4.44,9.21a20.23,20.23,0,0,0-.54,2.17C679.22,314.57,678.19,315.51,676.38,315.06Z" transform="translate(-15.5 -8.8)"/><path class="cls-11" d="M752.21,212.06c-2.53.58-3.37,0-3.31-2.3.05-2.11.23-3.19,2.84-3.15,10.06.16,20.12.08,30.19.06,1.5,0,2.7-.11,2.68,2.11,0,1.95-.78,2.38-2.48,2.42C772,211.46,761.84,211.78,752.21,212.06Z" transform="translate(-15.5 -8.8)"/><path class="cls-10" d="M670.15,330c-.56,0-1.13,0-1.68,0-5.4-.43-5.87-1-5.07-6.27q.51-3.33.8-6.68c.12-1.34.23-2.12,2-1.49,3.33,1.21,6.76,2.15,10.13,3.24.65.21,1.35.29,1.54,1.33C678.9,326,676,329.89,670.15,330Z" transform="translate(-15.5 -8.8)"/><path class="cls-10" d="M683.58,267.89a4.78,4.78,0,0,0,.66,1.12c2.22,2.54,4.43,5.09,6.74,7.54.91,1,1.17,1.74.46,2.94-.85,1.45-1.48,3-2.22,4.54-1.72,3.46-1.72,3.47-5.12,1.79a21,21,0,0,1-2.43-1.4c-5.13-3.52-5.47-5-2.47-10.31,1-1.71,1.91-3.44,2.88-5.15A1.53,1.53,0,0,1,683.58,267.89Z" transform="translate(-15.5 -8.8)"/><path class="cls-10" d="M680.74,299.48A14.66,14.66,0,0,1,672.4,296a3.49,3.49,0,0,1-1.24-3.55,42.47,42.47,0,0,1,3.05-8.14c.42-.95.86-.73,1.49-.31,3.11,2.09,6.25,4.17,9.37,6.26.23.15.61.35.61.53.05,2.78-1.5,5.1-2.26,7.66C683,300,681.48,299,680.74,299.48Z" transform="translate(-15.5 -8.8)"/><path class="cls-10" d="M859.05,275.76c1-.16,1.08.53,1.32,1,1.29,2.4,2.5,4.84,3.84,7.21a1.76,1.76,0,0,1-.4,2.46c-2.73,2.75-6.23,4.14-9.71,5.54a1.12,1.12,0,0,1-1.6-.68c-.12-.25-.25-.51-.39-.75-3.81-6.91-3.81-6.91,2.52-11.55C856.14,277.86,857.66,276.76,859.05,275.76Z" transform="translate(-15.5 -8.8)"/><path class="cls-10" d="M866.65,289.17c1.12,2.65,2.12,5.17,3.24,7.64a2.61,2.61,0,0,1-1,3.65,21.48,21.48,0,0,1-9.43,3.38,2.16,2.16,0,0,1-2.56-1.51c-2.74-6.37-2.8-6.35,3.24-9.63Z" transform="translate(-15.5 -8.8)"/><path class="cls-6" d="M700.18,266.09c-.37.56-.65,1-1,1.47-.94,1.29-1.91,2.56-2.85,3.85-2.22,3-2.52,3.11-5.34.69-2.32-2-3.74-4.66-5.13-7.34a2.08,2.08,0,0,1,.36-2.32c4.34-6.68,4.34-6.7,9.73-1C697.38,263,698.74,264.49,700.18,266.09Z" transform="translate(-15.5 -8.8)"/><path class="cls-9" d="M784.44,219.7l-35,1.11c-.75-4.23-.4-4.7,3.58-4.74,9.25-.08,18.48-.8,27.73-.85C785.08,215.2,785.19,215.37,784.44,219.7Z" transform="translate(-15.5 -8.8)"/><path class="cls-12" d="M889.67,354c1-2.32,2.07-4.63,3.1-6.95a3.57,3.57,0,0,1-1-1.37c-3.22-6.17-8.58-8.77-15.31-9a26.19,26.19,0,0,1,5,3.51c3.42,3.32,5.22,7.46,6.33,12C888.07,353.4,888.48,354.15,889.67,354Z" transform="translate(-15.5 -8.8)"/><path class="cls-10" d="M843.47,253.89a35.19,35.19,0,0,0,3.34,3.52c2.13,1.72,2.06,3.5.58,5.52a29.94,29.94,0,0,1-2.15,2.94c-4,4.3-7.5,3.78-10.28-1.4a1.13,1.13,0,0,1,.17-1.49c2.49-2.8,5-5.62,7.46-8.42A7,7,0,0,1,843.47,253.89Z" transform="translate(-15.5 -8.8)"/><path class="cls-10" d="M829.62,261.06c0-5.86,0-11.41,0-16.95,0-1.24.4-1.5,1.5-.91a27.75,27.75,0,0,1,7.78,6.43c1.1,1.25.52,2.68-.06,4C837.11,257.45,834.05,259.72,829.62,261.06Z" transform="translate(-15.5 -8.8)"/><path class="cls-13" d="M847.2,279.69c-.77.13-1-.49-1.28-.91-3.77-4.64-3.75-4.85.53-8.88,1.57-1.48,3.12-3,4.6-4.55.91-1,1.51-.82,2.15.24.48.8,1.07,1.54,1.61,2.31,2.75,3.86,2.68,4.59-.91,7.8A23.38,23.38,0,0,1,847.2,279.69Z" transform="translate(-15.5 -8.8)"/><path class="cls-10" d="M868,325c-1.19-.19-2.87.23-4.25-.81-1.71-1.31-1.53-3.42-1.66-5.16-.09-1.25,1.77-1.05,2.76-1.39,2.82-1,5.72-1.69,8.54-2.66,1.27-.44,2-.38,2.05,1.11a6,6,0,0,0,.3,1.08c1.36,6.1.36,7.42-6,7.83C869.33,325,868.86,325,868,325Z" transform="translate(-15.5 -8.8)"/><path class="cls-10" d="M808.21,394.06a28.32,28.32,0,0,0,0-3.75,2.62,2.62,0,0,1,0-.28c.16-1.23-.4-1.65-1.61-1.61-3.28.12-6.56.17-9.85.23-1.86,0-2.5.87-2.46,2.8,0,1.26,0,2.2.11,2.91C799,394.27,803.59,394.12,808.21,394.06Z" transform="translate(-15.5 -8.8)"/><path class="cls-10" d="M863.47,314.24c-2.06.05-5.2-4.3-4.34-6.09.17-.35.73-.56,1.15-.72,3.33-1.25,6.7-2.4,10-3.75,1.49-.62,1.87-.15,2.33,1.21,2,5.85,1.87,6.18-3.92,8.32A16.25,16.25,0,0,1,863.47,314.24Z" transform="translate(-15.5 -8.8)"/><path class="cls-14" d="M799.46,364.84h-2c-4.77.14-5.89-1.22-5.2-6,.18-1.22.86-1.24,1.74-1.28,3.45-.17,6.91-.33,10.36-.57,1.52-.1,2.12.36,2.23,2,.38,5.67,2,5.62-5.2,5.79-.66,0-1.31,0-2,0Z" transform="translate(-15.5 -8.8)"/><path class="cls-15" d="M735,380.84c.94,0,1.87,0,2.81,0,4.83.06,4-.61,4.27,4.15.11,2.25-.66,2.93-2.84,2.93-3.09,0-6.18.29-9.26.56-1.44.13-1.94-.27-2-1.8-.32-5.85-.38-5.84,5.35-5.85Z" transform="translate(-15.5 -8.8)"/><path class="cls-12" d="M649,359.73c.82-4.19,1.6-8.32,4.18-12a16.21,16.21,0,0,1,16.94-6.62,2.4,2.4,0,0,1,1.93,1.79c-5.25-2-8-1.29-11.92,2.86A22.19,22.19,0,0,0,654.69,357c-.77,3.92-.69,3.94-4.64,3.06C649.69,360,649.34,359.83,649,359.73Z" transform="translate(-15.5 -8.8)"/><path class="cls-9" d="M734.66,376.9c-.75,0-1.5,0-2.25,0-4.8.1-4.66.08-5.23-4.71-.26-2.2.43-2.84,2.45-2.79,3.19.07,6.39,0,9.58,0,1.56,0,2.27.51,2.37,2.27.3,5.19.39,5.18-4.94,5.18Z" transform="translate(-15.5 -8.8)"/><path class="cls-9" d="M703.23,262.73a14.48,14.48,0,0,1-8-7.32,3.48,3.48,0,0,1,.43-4.17,47.58,47.58,0,0,1,6.7-6.36C703.79,250.89,702.9,256.65,703.23,262.73Z" transform="translate(-15.5 -8.8)"/><path class="cls-9" d="M800.54,375.06h-2.8c-4.92,0-5.18-.34-4.53-5.17.17-1.17.58-1.59,1.74-1.63,3.46-.12,6.91-.32,10.35-.54,1.09-.06,1.64.18,1.86,1.43,1,5.92,1.06,5.91-4.94,5.91Z" transform="translate(-15.5 -8.8)"/><path class="cls-9" d="M803.65,378.5c4.08-.26,5.38,1.36,4.49,5.36-.2.9-.72,1-1.38,1-3.74.24-7.48.5-11.22.68-2.39.11-1.59-2-1.81-3.1-.43-2.11-.09-3.83,2.91-3.61A51.6,51.6,0,0,0,803.65,378.5Z" transform="translate(-15.5 -8.8)"/><path class="cls-16" d="M742.18,396.9a13.93,13.93,0,0,0,.06-4.29c-.08-1.29-.32-1.78-1.78-1.61-3.34.39-6.7.66-10.05.78-1.66.06-2,.74-1.95,2.22,0,1.17,0,2,0,2.63Q735.35,396.75,742.18,396.9Z" transform="translate(-15.5 -8.8)"/><path class="cls-17" d="M733.83,359.73a42,42,0,0,0,4.49,0c2.1-.23,2.76.55,2.73,2.64-.06,3.59.06,3.6-3.58,3.6-2.81,0-5.62-.06-8.43,0-1.48.05-2.12-.32-2.22-2-.24-4.25-.34-4.24,3.92-4.24Z" transform="translate(-15.5 -8.8)"/><path class="cls-17" d="M784.44,219.7c.06-3.94.06-4-3.9-3.9-9.71.33-19.42.77-29.13,1.09-3.29.11-1.49,2.52-1.92,3.92-1.66-3.95-.84-5.41,3.1-5.52l28.7-.79C785.17,214.39,786,215.81,784.44,219.7Z" transform="translate(-15.5 -8.8)"/><path class="cls-18" d="M682.74,359.81c-2.58-.52-4.66-1.59-4.15-5.53,0-.07-.11-.14-.17-.22,0,1.69,0,3.38-.07,5.06-.11,3.92-.12,4.47,2.63,5.1A43.09,43.09,0,0,1,682.74,359.81Z" transform="translate(-15.5 -8.8)"/><path class="cls-18" d="M856.16,357.47l7.8-1.73c1.32,2.62.4,3.7-2.41,4.24C857.41,360.77,857.44,361,856.16,357.47Z" transform="translate(-15.5 -8.8)"/><path class="cls-19" d="M780.34,90.23c11.43-.28,23.36.57,35.29.74a17,17,0,0,1,12.82,6.15c8.41,9.43,11.61,32.49-4,44.27a18.77,18.77,0,0,1-11.43,4.1c-7.24,0-14.48.24-21.72.18-21.8-.19-43.58.71-65.35,1.48-15.39.54-24.65-13.36-25.54-23.61-.67-7.75.25-15.19,4.46-22a17.76,17.76,0,0,1,15-9C739.84,91.47,759.8,90,780.34,90.23Z" transform="translate(-15.5 -8.8)"/><path class="cls-19" d="M764.72,185.44c-10-.12-20.4-3.24-28.75-11.74a32.16,32.16,0,0,1-6.61-10.07c-1.15-2.71-.64-3.42,2.27-3.83,10.71-1.5,21.51-1.83,32.3-2.2,12.48-.43,25-.73,37.45,0,5.84.35,5.78.26,3.38,5.47C797.18,179.55,783.42,185.3,764.72,185.44Z" transform="translate(-15.5 -8.8)"/><path class="cls-19" d="M765.58,282.31q20.71-.46,41.44-.93c.93,0,1.87.15,2.8.16,2.82,0,4,1.46,4,4.26-.06,6.3,0,12.6,0,18.9,0,8.94,0,17.87,0,26.81,0,4.43-.78,5-5.11,5.08q-41.86.78-83.74,1.58c-5.7.1-6.47-.59-6.48-6.18q-.08-21.72.08-43.46c0-4.92.69-5.47,5.6-5.48h41.45Z" transform="translate(-15.5 -8.8)"/><path class="cls-20" d="M732,269.5c-5.81,0-10.16-4-10.1-9.42.05-5.87,4.24-10.51,9.46-10.53,5.91,0,10.12,4,10.11,9.72C741.47,265.51,737.79,269.49,732,269.5Z" transform="translate(-15.5 -8.8)"/><path class="cls-20" d="M765.62,269.5c-6,0-10.18-3.8-10.2-9.23,0-5.87,4-10.81,8.83-10.85,6,0,10.59,4.12,10.62,9.64C774.9,265.38,771.28,269.46,765.62,269.5Z" transform="translate(-15.5 -8.8)"/><path class="cls-20" d="M811.08,259.56c-.16,6.21-4,10.08-9.73,9.94s-9.8-4.06-9.68-9.71c.13-6.1,4.29-10.39,9.91-10.23A9.48,9.48,0,0,1,811.08,259.56Z" transform="translate(-15.5 -8.8)"/><path class="cls-20" d="M777.7,43.15a6,6,0,0,1-4.8-2c-3.55-3.73-3.12-10.53.9-14.21,5.06-4.65,11.55-4.92,15.28-.64a8.37,8.37,0,0,1,.19,11.29A15.9,15.9,0,0,1,777.7,43.15Z" transform="translate(-15.5 -8.8)"/><path class="cls-20" d="M753.42,34.53c0,6.91-4.5,10.11-11,7.84A21.19,21.19,0,0,1,736.27,39c-3.68-2.89-4.62-6.7-2.65-10.69s5.71-5.8,10.27-4.63C750.08,25.28,753.43,29.1,753.42,34.53Z" transform="translate(-15.5 -8.8)"/><path class="cls-21" d="M788.23,140.72c-12.3-1-27.25,1.46-42.27,1.18-6.46-.12-12.93.43-19.4.43-10.26,0-18.15-5.65-20.61-15.39-2.4-9.52-1.42-18.63,5.77-26.21a11.29,11.29,0,0,1,7.54-3.39c7.48-.56,15-.76,22.46-1.28,18.58-1.29,37.17-1.36,55.76-1,6,.13,12,.27,18,.54,5.83.27,9.83,3.57,12.18,8.69,4.08,8.91,4.57,18-.34,26.76-3.38,6-8.6,9.59-15.78,9.63C804.69,140.76,797.83,140.72,788.23,140.72Z" transform="translate(-15.5 -8.8)"/><path class="cls-22" d="M788.8,161.69c2.63,0,5.26-.12,7.89,0s3,.79,1.74,3.11c-2.7,5-6.52,9.11-11.78,11.31-14.46,6-28.82,6.13-42.72-1.82a22.86,22.86,0,0,1-7.73-8c-.81-1.27-.7-1.74.89-1.87,5.79-.49,11.57-1.27,17.37-1.56,11.44-.58,22.88-.91,34.33-1.34A1.21,1.21,0,0,0,788.8,161.69Z" transform="translate(-15.5 -8.8)"/><path class="cls-6" d="M755.11,333.51c-9.58,0-19.17-.06-28.75,0-2.23,0-3-.53-3-3q.2-19.89,0-39.78c0-2.44.82-3,3-3,6.87-.06,13.73-.23,20.59-.38q29.31-.66,58.62-1.35c3.68-.08,3.71-.13,3.69,3.38-.06,13.26-.18,26.52-.19,39.78,0,1.77-.42,2.37-2.32,2.45C789.5,332.33,772.31,332.6,755.11,333.51Z" transform="translate(-15.5 -8.8)"/><path class="cls-23" d="M726.8,260.08c0-3.15,2.14-5.81,4.84-5.89a5.06,5.06,0,0,1,5.05,5c.12,3.38-1.85,5.71-4.82,5.7A4.72,4.72,0,0,1,726.8,260.08Z" transform="translate(-15.5 -8.8)"/><path class="cls-9" d="M770,259.47c0,3.37-1.78,5.41-4.73,5.41a4.82,4.82,0,0,1-5.14-4.8c0-3,2.28-5.83,4.9-5.9A5,5,0,0,1,770,259.47Z" transform="translate(-15.5 -8.8)"/><path class="cls-24" d="M806.38,259.42c0,3.17-2,5.42-4.82,5.47a5,5,0,0,1-5.24-4.75c-.1-3.1,2.41-6,5.18-5.94A5.21,5.21,0,0,1,806.38,259.42Z" transform="translate(-15.5 -8.8)"/><path class="cls-25" d="M775.19,34.59c0-3.45,5.49-7.43,8.55-6.32a4.24,4.24,0,0,1,1.77,6.33,9.12,9.12,0,0,1-7.22,3.75C775.89,38.47,775.43,36.39,775.19,34.59Z" transform="translate(-15.5 -8.8)"/><path class="cls-26" d="M745.39,38.45a14.38,14.38,0,0,1-7.55-4.6c-1.31-1.67.07-4.83,2.24-5.51,2.64-.83,4.76.35,6.59,2.11s2.59,3.6,1.74,6.07C747.93,37.88,747,38.44,745.39,38.45Z" transform="translate(-15.5 -8.8)"/><path class="cls-19" d="M732.64,137.88c-10.73-.22-16.88-8.12-16.77-19.6s7.25-17.27,18.28-17.41,17.92,7,18.07,19.56C752.33,130.94,745.52,137.13,732.64,137.88Z" transform="translate(-15.5 -8.8)"/><path class="cls-19" d="M803.78,100.54c10.38-.79,17.61,8.21,17.44,19.34s-7.05,17.44-19.79,17.44c-9.81,0-16.36-7.68-16.37-19.19C785.06,107,792,100.55,803.78,100.54Z" transform="translate(-15.5 -8.8)"/><path class="cls-20" d="M774.87,310c-.06,6-3.88,10.18-9.35,10.17-5.78,0-10.17-4.08-10.17-9.45,0-5.81,4.32-10.85,9.26-10.78A10.06,10.06,0,0,1,774.87,310Z" transform="translate(-15.5 -8.8)"/><path class="cls-27" d="M720.67,118.49c0-8.12,5.09-13,13.6-13.07,7.94-.08,13.17,5.81,13.21,14.91,0,8.19-5.5,12.78-15.39,12.75C725.26,133.05,720.64,127.14,720.67,118.49Z" transform="translate(-15.5 -8.8)"/><path class="cls-27" d="M803.27,105c8.6,0,13.16,5.18,13.31,14.58.15,8.5-4.42,12.35-14.48,13.07-7.25.52-12.29-5.86-12.28-14.47C789.84,110,794.88,105,803.27,105Z" transform="translate(-15.5 -8.8)"/><path class="cls-28" d="M765.18,315.38c-3.1,0-5.06-1.91-5-4.82s2.39-5.75,5-5.79,4.9,2.35,4.88,5.4C770,313.59,768.31,315.42,765.18,315.38Z" transform="translate(-15.5 -8.8)"/><path class="cls-29" d="M727.37,119.52c0-4.09,2.75-7.12,6.36-7.1,4.34,0,7.33,2.65,7.32,6.44,0,4.34-2.86,7.65-6.58,7.64C730.16,126.48,727.33,123.7,727.37,119.52Z" transform="translate(-15.5 -8.8)"/><path class="cls-29" d="M796.85,119c0-4.52,2.36-7,6.57-7a6.41,6.41,0,0,1,6.49,6.68c0,4.11-2.57,6.83-6.54,6.85C798.93,125.52,796.85,123.42,796.85,119Z" transform="translate(-15.5 -8.8)"/><text class="cls-30" transform="translate(220.45 162.05) rotate(-7.55)">BE<tspan class="cls-31" x="73.44" y="0">A</tspan><tspan x="112.6" y="0">T</tspan><tspan class="cls-32" x="150.01" y="0"> </tspan><tspan class="cls-33" x="169.62" y="0">THE</tspan></text><text class="cls-34" transform="matrix(0.99, -0.13, 0.13, 0.99, 190.11, 239.87)">M<tspan class="cls-35" x="80.24" y="0">A</tspan><tspan x="143.88" y="0">CHINE</tspan></text></g><g id="Ebene_1" data-name="Ebene 1"><path class="cls-36" d="M297.26,403.56C267,485,217.06,557.1,181.42,636.08a526,526,0,0,0-25.08,66.25c-.55,1.86,2.35,2.65,2.9.8C184,619.86,233.1,547,271.43,469.79a678.18,678.18,0,0,0,28.72-65.44c.67-1.81-2.22-2.59-2.89-.79Z" transform="translate(-15.5 -8.8)"/><path class="cls-36" d="M156.75,704.82q135.14.69,270.25.63t270.25-.88q75.78-.45,151.57-1.14a1.5,1.5,0,0,0,0-3q-135.12,1.23-270.24,1.71t-270.25.22q-75.78-.15-151.58-.54a1.5,1.5,0,0,0,0,3Z" transform="translate(-15.5 -8.8)"/><path class="cls-36" d="M849.91,701.36c5.88-39.72,17.75-78.17,29.09-116.59l35-118.48,19.74-66.88c.55-1.85-2.35-2.65-2.89-.8q-17.49,59.25-35,118.48c-11.55,39.13-23.62,78.16-34.4,117.52-5.94,21.72-11.12,43.66-14.42,65.95-.28,1.89,2.61,2.7,2.89.8Z" transform="translate(-15.5 -8.8)"/><path class="cls-36" d="M297,406.46q123.84-1.36,247.66-3.83t247.6-6.07q69.87-2,139.73-4.4c1.93-.07,1.93-3.07,0-3q-123.75,4.2-247.54,7.32t-247.63,5.09Q367,402.7,297,403.46a1.5,1.5,0,0,0,0,3Z" transform="translate(-15.5 -8.8)"/><path class="cls-36" d="M847.31,701.11v68.36a1.5,1.5,0,0,0,3,0V701.11a1.5,1.5,0,0,0-3,0Z" transform="translate(-15.5 -8.8)"/><path class="cls-36" d="M152.25,710a629.74,629.74,0,0,1-3.4,72.14c-.2,1.92,2.8,1.9,3,0a629.74,629.74,0,0,0,3.4-72.14,1.5,1.5,0,0,0-3,0Z" transform="translate(-15.5 -8.8)"/><path class="cls-36" d="M761.58,774.21q43.67-2.76,87.29-6.44c1.91-.16,1.92-3.16,0-3q-43.62,3.71-87.29,6.44c-1.92.12-1.93,3.12,0,3Z" transform="translate(-15.5 -8.8)"/><path class="cls-36" d="M596.6,781.88c53-1.39,105.84-4.4,158.73-7.28,1.92-.11,1.93-3.11,0-3-52.89,2.88-105.77,5.89-158.73,7.28-1.92,0-1.93,3,0,3Z" transform="translate(-15.5 -8.8)"/><path class="cls-36" d="M512.07,784.12q39.82-.86,79.64-2.08c1.93-.06,1.94-3.06,0-3q-39.81,1.25-79.64,2.08c-1.93,0-1.94,3,0,3Z" transform="translate(-15.5 -8.8)"/><path class="cls-36" d="M432.71,785.53q36.9-.54,73.79-1.29c1.93,0,1.94-3,0-3q-36.88.76-73.79,1.29c-1.93,0-1.93,3,0,3Z" transform="translate(-15.5 -8.8)"/><path class="cls-36" d="M360.43,786.53q32.67-.4,65.33-.89c1.93,0,1.93-3,0-3q-32.67.5-65.33.89c-1.93,0-1.93,3,0,3Z" transform="translate(-15.5 -8.8)"/><path class="cls-36" d="M289.39,786.86q31.35-.06,62.68-.27a1.5,1.5,0,0,0,0-3q-31.33.21-62.68.27a1.5,1.5,0,0,0,0,3Z" transform="translate(-15.5 -8.8)"/><path class="cls-36" d="M216.16,786.44q32.79.31,65.56.41a1.5,1.5,0,0,0,0-3q-32.78-.11-65.56-.41a1.5,1.5,0,0,0,0,3Z" transform="translate(-15.5 -8.8)"/><path class="cls-36" d="M150.61,785.47q28.59.54,57.18.87a1.5,1.5,0,0,0,0-3q-28.59-.33-57.18-.87a1.5,1.5,0,0,0,0,3Z" transform="translate(-15.5 -8.8)"/><path class="cls-36" d="M930.25,393.52a267.5,267.5,0,0,0,7.3,61c.45,1.87,3.34,1.08,2.9-.8a263.93,263.93,0,0,1-7.2-60.23,1.5,1.5,0,0,0-3,0Z" transform="translate(-15.5 -8.8)"/><path class="cls-36" d="M936.3,455.08l-30.84,125c-10,40.5-19.14,81.33-30.46,121.48-6.32,22.42-13.87,44.49-24.06,65.48-.84,1.72,1.75,3.25,2.59,1.51C871.16,732.27,880.71,693,890.32,654l31.32-127,17.55-71.18c.46-1.88-2.43-2.67-2.89-.8Z" transform="translate(-15.5 -8.8)"/><path class="cls-36" d="M305.36,416.64q-44.19,110-97.42,216-15,29.92-30.79,59.51c-.91,1.7,1.68,3.22,2.59,1.51q56-105.21,103-214.84,13.1-30.53,25.48-61.35c.72-1.79-2.19-2.57-2.9-.8Z" transform="translate(-15.5 -8.8)"/><path class="cls-36" d="M178.4,695.75l254.67-1.17,254.67-1.18,143.82-.66a1.5,1.5,0,0,0,0-3l-254.68,1.17-254.67,1.18-143.81.66a1.5,1.5,0,0,0,0,3Z" transform="translate(-15.5 -8.8)"/><path class="cls-36" d="M832.94,690.11a1377.78,1377.78,0,0,1,56.41-223.42q10.8-31.41,23.1-62.29c.71-1.8-2.19-2.57-2.9-.8a1385.77,1385.77,0,0,0-67.21,220.81q-6.93,32.3-12.29,64.9c-.31,1.89,2.58,2.7,2.89.8Z" transform="translate(-15.5 -8.8)"/><path class="cls-36" d="M310,418.57l235.82-1.76,117.91-.88c39.12-.3,78.39.3,117.46-1.93,43.32-2.48,86.5-12.3,130-8.38,1.92.17,1.91-2.83,0-3-38.7-3.49-77,4.18-115.41,7.36s-77.43,2.54-116.1,2.83l-236.81,1.77-132.9,1a1.5,1.5,0,0,0,0,3Z" transform="translate(-15.5 -8.8)"/><path class="cls-36" d="M307.79,419.12a407,407,0,0,1,10.91,80.73c.06,1.92,3.06,1.93,3,0a412,412,0,0,0-11-81.53c-.45-1.87-3.35-1.08-2.9.8Z" transform="translate(-15.5 -8.8)"/><path class="cls-36" d="M248.46,638.32q-10.8,27.87-19.47,56.49c-.56,1.85,2.34,2.65,2.9.8q8.66-28.61,19.46-56.5c.7-1.8-2.2-2.58-2.89-.79Z" transform="translate(-15.5 -8.8)"/><path class="cls-36" d="M319,500q-16.86,26.22-31.59,53.7c-.91,1.7,1.68,3.22,2.59,1.51q14.73-27.46,31.59-53.69c1-1.63-1.55-3.14-2.59-1.52Z" transform="translate(-15.5 -8.8)"/><path class="cls-36" d="M855,492q10.38.72,20.75,1.48c1.93.15,1.92-2.85,0-3Q865.43,489.72,855,489c-1.93-.14-1.92,2.86,0,3Z" transform="translate(-15.5 -8.8)"/><path class="cls-36" d="M788.55,488.15q30.5,1.38,61,3.47c1.93.13,1.92-2.87,0-3q-30.45-2-61-3.47c-1.93-.09-1.92,2.91,0,3Z" transform="translate(-15.5 -8.8)"/><path class="cls-36" d="M714.58,486.25q34.59.18,69.16,1.69c1.93.08,1.93-2.92,0-3q-34.56-1.45-69.16-1.69a1.5,1.5,0,0,0,0,3Z" transform="translate(-15.5 -8.8)"/><path class="cls-36" d="M637.66,485.74q34.64-.09,69.27.4a1.5,1.5,0,0,0,0-3q-34.63-.51-69.27-.4a1.5,1.5,0,0,0,0,3Z" transform="translate(-15.5 -8.8)"/><path class="cls-36" d="M562.49,486.8c23.9-.27,47.82.61,71.69-1,1.92-.13,1.93-3.13,0-3-23.87,1.61-47.79.73-71.69,1a1.5,1.5,0,0,0,0,3Z" transform="translate(-15.5 -8.8)"/><path class="cls-36" d="M491.25,489.34q32.49-1.48,65-2.37c1.93-.06,1.94-3.06,0-3q-32.5.88-65,2.37c-1.93.09-1.94,3.09,0,3Z" transform="translate(-15.5 -8.8)"/><path class="cls-36" d="M416.32,495.53c21.24-2.8,42.59-4.5,64-5.65,1.92-.11,1.94-3.11,0-3-21.38,1.15-42.73,2.85-64,5.65-1.89.25-1.91,3.25,0,3Z" transform="translate(-15.5 -8.8)"/><path class="cls-36" d="M348.56,500.75c21-2,41.95-3.91,63-5,1.92-.1,1.93-3.1,0-3-21,1.08-42,3-63,5-1.9.19-1.92,3.19,0,3Z" transform="translate(-15.5 -8.8)"/><path class="cls-36" d="M321.64,503.39q10-1,20-2c1.9-.19,1.92-3.19,0-3q-10,1-20,2c-1.9.19-1.92,3.2,0,3Z" transform="translate(-15.5 -8.8)"/><path class="cls-36" d="M287.34,554.32,267,536.3a1.52,1.52,0,0,0-2.56,1.06c.26,20.08-17.46,33.17-24.76,50.43-1.34,3.16-2.51,6.34-2.08,9.81.5,4.18,2.39,8.43,3.63,12.44l9,29.17c.57,1.84,3.47,1,2.9-.8q-4.5-14.58-9-29.17c-1.23-4-3.62-8.91-3.67-13.14-.07-4.92,3.24-10.22,5.68-14.32,8.47-14.21,21.54-26.71,21.31-44.42l-2.56,1.06,20.33,18c1.44,1.28,3.57-.83,2.12-2.12Z" transform="translate(-15.5 -8.8)"/><path class="cls-36" d="M285.56,552.93a58,58,0,0,1-12.6,1.18,1.5,1.5,0,0,0,0,3,62.73,62.73,0,0,0,13.39-1.28c1.89-.39,1.1-3.28-.79-2.9Z" transform="translate(-15.5 -8.8)"/><path class="cls-36" d="M270.75,554.19a7.12,7.12,0,0,1-3.47-4c-.62-1.82-3.52-1-2.89.8a10.26,10.26,0,0,0,4.84,5.79c1.71.91,3.22-1.68,1.52-2.59Z" transform="translate(-15.5 -8.8)"/></g><g id="Ebene_2" data-name="Ebene 2"><path class="cls-36" d="M233.78,752.08A9.15,9.15,0,0,0,239,740.69c-1.5-4.58-6.31-6.29-10.73-5.52-1.89.33-1.09,3.22.8,2.89,2.77-.48,5.85.5,7,3.28a6.12,6.12,0,0,1-3.09,7.85c-1.76.71-1,3.62.8,2.89Z" transform="translate(-15.5 -8.8)"/><path class="cls-36" d="M230.13,737a8,8,0,0,0-6.79,10.74c.72,1.76,3.62,1,2.89-.8-1.18-2.88.54-6.76,3.9-6.94,1.92-.11,1.94-3.11,0-3Z" transform="translate(-15.5 -8.8)"/><path class="cls-36" d="M365.88,469.66c5.88-2.26,9.87-8.67,7.43-14.92-2.19-5.61-9-7.84-13.65-3.9-1.47,1.24.66,3.36,2.13,2.12,3.35-2.83,8-.16,9,3.68,1.13,4.33-1.74,8.6-5.71,10.13-1.78.68-1,3.58.8,2.89Z" transform="translate(-15.5 -8.8)"/><path class="cls-36" d="M360.42,454.57c-5,.71-6.61,6.71-5,10.87.68,1.79,3.59,1,2.9-.8-1.05-2.74-.48-6.69,2.93-7.18,1.9-.28,1.09-3.17-.8-2.89Z" transform="translate(-15.5 -8.8)"/></g><g id="Ebene_3" data-name="Ebene 3"><path class="cls-37" d="M207.19,802l28.75-61.53c-1.44-.9-2.86-1.82-4.33-2.65l-28.87,61.79a4.56,4.56,0,0,1,2.12.92A4.41,4.41,0,0,1,207.19,802Z" transform="translate(-15.5 -8.8)"/><path class="cls-37" d="M258.12,693,370.69,452.14c-.1-.15-.21-.3-.32-.44H369a5,5,0,0,1-3.15-1.18L252.55,693Z" transform="translate(-15.5 -8.8)"/><path class="cls-37" d="M404,378.9a5.4,5.4,0,0,1-3.91-.33,4.41,4.41,0,0,1-.79.36L388,403.15a5.23,5.23,0,0,1,1.79.41,4.64,4.64,0,0,1,3.24-1.18,5.87,5.87,0,0,1,.86.07l10.69-22.86A4.57,4.57,0,0,1,404,378.9Z" transform="translate(-15.5 -8.8)"/></g><g id="Ebene_4" data-name="Ebene 4"><path class="cls-36" d="M772.13,752.27a9.12,9.12,0,0,0,3.75-11.67c-1.94-4.35-6.9-5.74-11.21-4.43-1.85.56-1.06,3.45.79,2.89,2.79-.84,6-.34,7.54,2.43a6.14,6.14,0,0,1-2.38,8.19c-1.7.93-.19,3.52,1.51,2.59Z" transform="translate(-15.5 -8.8)"/><path class="cls-36" d="M766.3,737.85c-5.17.91-7.62,7.21-5.16,11.62a1.5,1.5,0,0,0,2.6-1.51,5,5,0,0,1,3.36-7.22c1.89-.34,1.09-3.23-.8-2.89Z" transform="translate(-15.5 -8.8)"/><path class="cls-36" d="M869.54,456.09c5.51-2.9,8.59-10,5.34-15.74-2.84-5-9.75-6.65-13.83-2.24-1.31,1.41.81,3.54,2.12,2.12,3.06-3.31,8-1.39,9.51,2.53,1.62,4.31-.8,8.71-4.66,10.74-1.71.9-.19,3.49,1.52,2.59Z" transform="translate(-15.5 -8.8)"/><path class="cls-36" d="M862.29,441.79c-5.06,1.39-5.93,7.5-3.76,11.65.89,1.71,3.48.19,2.59-1.52-1.27-2.42-1.12-6.39,2-7.23a1.51,1.51,0,0,0-.8-2.9Z" transform="translate(-15.5 -8.8)"/><path class="cls-37" d="M768.09,738.48l-21.28,64.77a5.48,5.48,0,0,1,.37,2.12,5.59,5.59,0,0,1,2.92.86,4.66,4.66,0,0,1,1.15-.34l21.45-65.3C771.16,739.87,769.64,739.13,768.09,738.48Z" transform="translate(-15.5 -8.8)"/><path class="cls-37" d="M789.05,690.83l83-252.62-.38-.39-1.32.15a4.91,4.91,0,0,1-3.27-.79L783.53,691.49Z" transform="translate(-15.5 -8.8)"/><path class="cls-37" d="M894.52,365.89a5.42,5.42,0,0,1-3.83-.61l-8,24.43,5.53-.66,7.51-22.89A4.74,4.74,0,0,1,894.52,365.89Z" transform="translate(-15.5 -8.8)"/><path class="cls-36" d="M696.9,750.61A9.11,9.11,0,0,0,701,739.05c-1.83-4.41-6.74-5.91-11.1-4.73a1.5,1.5,0,0,0,.8,2.89c2.81-.76,6-.1,7.43,2.72a6.15,6.15,0,0,1-2.69,8.09c-1.72.88-.21,3.47,1.51,2.59Z" transform="translate(-15.5 -8.8)"/><path class="cls-36" d="M691.43,736.05c-5.22.76-7.75,7-5.44,11.49.89,1.71,3.48.2,2.59-1.51a5,5,0,0,1,3.65-7.09c1.9-.28,1.09-3.17-.8-2.89Z" transform="translate(-15.5 -8.8)"/><path class="cls-36" d="M803.39,457.57c5.59-2.72,8.88-9.78,5.77-15.59-2.74-5.1-9.54-6.88-13.77-2.59-1.36,1.38.76,3.5,2.12,2.12,3.22-3.26,8.23-1,9.47,3.06,1.34,4.34-1.24,8.53-5.1,10.41-1.74.85-.22,3.43,1.51,2.59Z" transform="translate(-15.5 -8.8)"/><path class="cls-36" d="M796.51,443.09c-5.13,1.22-6.08,7.38-4.06,11.56.85,1.73,3.43.21,2.59-1.52-1.2-2.48-.84-6.4,2.27-7.14,1.87-.45,1.08-3.34-.8-2.9Z" transform="translate(-15.5 -8.8)"/><path class="cls-37" d="M693.25,736.72l-22.87,63a2.29,2.29,0,0,0,1.81,3.69,4.93,4.93,0,0,1,2.46-.66L697.79,739C696.28,738.21,694.78,737.42,693.25,736.72Z" transform="translate(-15.5 -8.8)"/><path class="cls-37" d="M715.67,689.74,806.4,439.8l-.36-.4-1.33.11a4.91,4.91,0,0,1-3.24-.89L710.12,690.24Z" transform="translate(-15.5 -8.8)"/><path class="cls-37" d="M832.37,362.42a5.61,5.61,0,0,1-2.85-1.06l-11,30.3,5.54-.5,10.08-27.77A4.35,4.35,0,0,1,832.37,362.42Z" transform="translate(-15.5 -8.8)"/><path class="cls-36" d="M612.93,748.87a9.12,9.12,0,0,0,4.32-11.48c-1.73-4.46-6.58-6-11-5-1.88.45-1.08,3.34.8,2.9,3.06-.72,6.52.3,7.52,3.59a6.08,6.08,0,0,1-3.19,7.39c-1.74.82-.22,3.4,1.52,2.59Z" transform="translate(-15.5 -8.8)"/><path class="cls-36" d="M608.21,734.13a8,8,0,0,0-6.11,11.4c.83,1.74,3.42.22,2.59-1.51-1.28-2.66.46-6.54,3.52-6.89,1.89-.22,1.92-3.23,0-3Z" transform="translate(-15.5 -8.8)"/><path class="cls-36" d="M728.05,459.11c5.68-2.58,9.15-9.6,6.14-15.48-2.65-5.17-9.32-7-13.67-2.88-1.4,1.33.72,3.45,2.12,2.12,3.34-3.17,8.29-.6,9.36,3.44,1.17,4.39-1.56,8.44-5.46,10.21-1.76.79-.23,3.38,1.51,2.59Z" transform="translate(-15.5 -8.8)"/><path class="cls-36" d="M721.52,444.47c-5.18,1.07-6.22,7.25-4.33,11.45.79,1.76,3.37.23,2.59-1.51-1.15-2.56-.57-6.41,2.54-7.05,1.89-.39,1.09-3.28-.8-2.89Z" transform="translate(-15.5 -8.8)"/><path class="cls-37" d="M591.26,791a4.76,4.76,0,0,1,1.4.42l21.47-54.09c-1.5-.81-3-1.64-4.48-2.38L587.77,790A5.54,5.54,0,0,1,591.26,791Z" transform="translate(-15.5 -8.8)"/><path class="cls-37" d="M633.45,688.6l98.1-247.14-.35-.42-1.33.08a4.94,4.94,0,0,1-3.22-1L627.9,688.93Z" transform="translate(-15.5 -8.8)"/><path class="cls-37" d="M759,371.43a4.62,4.62,0,0,1-2.56-.24,5.51,5.51,0,0,1-1.51.21,5.18,5.18,0,0,1-1-.09l-8.88,22.38,5.55-.33,8.6-21.67Z" transform="translate(-15.5 -8.8)"/><path class="cls-36" d="M530,749.38A9.1,9.1,0,0,0,534.57,738c-1.65-4.51-6.47-6.13-10.87-5.2-1.89.4-1.09,3.29.79,2.89,3.08-.65,6.52.51,7.42,3.81a6.1,6.1,0,0,1-3.4,7.29c-1.77.78-.24,3.37,1.51,2.6Z" transform="translate(-15.5 -8.8)"/><path class="cls-36" d="M525.58,734.55c-5.43.49-8.53,6.42-6.33,11.28.8,1.76,3.39.24,2.6-1.51-1.23-2.71.69-6.5,3.73-6.77,1.91-.18,1.93-3.18,0-3Z" transform="translate(-15.5 -8.8)"/><path class="cls-36" d="M651.92,462.41c5.74-2.45,9.34-9.42,6.45-15.35-2.55-5.25-9.16-7.17-13.6-3.14-1.43,1.3.7,3.41,2.12,2.12,3.53-3.2,8.47-.17,9.3,4,.87,4.37-1.89,8.16-5.78,9.81-1.77.76-.24,3.34,1.51,2.6Z" transform="translate(-15.5 -8.8)"/><path class="cls-36" d="M645.67,447.64c-4.92.9-6.44,6.87-4.7,11,.74,1.75,3.65,1,2.9-.8-1.13-2.67-.79-6.7,2.6-7.32,1.9-.34,1.09-3.24-.8-2.89Z" transform="translate(-15.5 -8.8)"/><path class="cls-37" d="M527,735.35l-29,68.28a5.08,5.08,0,0,1,.59,1.4,4.64,4.64,0,0,1,1.06.7,5,5,0,0,1,2.31-.54,5.59,5.59,0,0,1,.83.06l28.61-67.41C530,737,528.53,736.12,527,735.35Z" transform="translate(-15.5 -8.8)"/><path class="cls-37" d="M551.92,689.62,655.8,444.86l-.33-.43-1.34.05a4.93,4.93,0,0,1-3.19-1.06L546.36,689.82Z" transform="translate(-15.5 -8.8)"/><path class="cls-37" d="M684.79,368.37a6.18,6.18,0,0,1-1.58-1l-12.75,30,5.56-.2,11.71-27.57A4.63,4.63,0,0,1,684.79,368.37Z" transform="translate(-15.5 -8.8)"/><path class="cls-36" d="M449.83,752.9a9.12,9.12,0,0,0,4.62-11.36c-1.62-4.52-6.44-6.16-10.85-5.26-1.89.38-1.09,3.27.8,2.89,3.09-.63,6.51.56,7.38,3.87a6.11,6.11,0,0,1-3.47,7.27c-1.77.76-.24,3.35,1.52,2.59Z" transform="translate(-15.5 -8.8)"/><path class="cls-36" d="M445.48,738c-5.45.46-8.56,6.38-6.4,11.26.79,1.76,3.37.23,2.59-1.52-1.21-2.72.77-6.48,3.81-6.74,1.91-.16,1.92-3.16,0-3Z" transform="translate(-15.5 -8.8)"/><path class="cls-36" d="M573.44,467c5.81-2.42,9.67-8.9,7.07-15.1-2.32-5.52-9.19-7.65-13.75-3.58-1.44,1.29.69,3.41,2.13,2.12,3.27-2.92,8-.48,9.12,3.36,1.28,4.27-1.44,8.67-5.37,10.31-1.75.73-1,3.63.8,2.89Z" transform="translate(-15.5 -8.8)"/><path class="cls-36" d="M567.64,452c-4.94.87-6.48,6.84-4.77,11,.73,1.76,3.63,1,2.89-.8-1.11-2.68-.72-6.7,2.67-7.29,1.9-.34,1.1-3.23-.79-2.9Z" transform="translate(-15.5 -8.8)"/><path class="cls-37" d="M428.06,795.15l23.28-53.77c-1.47-.85-2.92-1.74-4.4-2.52l-23.48,54.22A5.7,5.7,0,0,1,428.06,795.15Z" transform="translate(-15.5 -8.8)"/><path class="cls-37" d="M472.15,693.31l105.65-244-.34-.42-1.34,0a4.94,4.94,0,0,1-3.18-1.08L466.59,693.47Z" transform="translate(-15.5 -8.8)"/><path class="cls-37" d="M607.9,378.13a5.68,5.68,0,0,1-3.33-.84,4.77,4.77,0,0,1-1.16.17l-9.16,21.16a4.66,4.66,0,0,1,2,.69,4.9,4.9,0,0,1,2.66-.73,7,7,0,0,1,.81.06l8.38-19.36A5.55,5.55,0,0,1,607.9,378.13Z" transform="translate(-15.5 -8.8)"/><path class="cls-36" d="M306,754.55a9.11,9.11,0,0,0,4.67-11.33c-1.6-4.53-6.41-6.19-10.82-5.31-1.89.37-1.09,3.26.8,2.89,3.09-.61,6.5.61,7.35,3.92a6.11,6.11,0,0,1-3.52,7.24c-1.77.76-.24,3.35,1.52,2.59Z" transform="translate(-15.5 -8.8)"/><path class="cls-36" d="M301.69,739.68c-5.45.43-8.58,6.35-6.44,11.23.77,1.76,3.36.24,2.59-1.52-1.2-2.73.82-6.47,3.85-6.71,1.91-.15,1.93-3.15,0-3Z" transform="translate(-15.5 -8.8)"/><path class="cls-36" d="M431.06,469.26c5.82-2.39,9.71-8.86,7.14-15.06-2.3-5.54-9.16-7.69-13.73-3.64-1.45,1.28.68,3.4,2.12,2.12,3.29-2.91,8-.42,9.11,3.42,1.25,4.28-1.5,8.66-5.43,10.27-1.76.73-1,3.63.79,2.89Z" transform="translate(-15.5 -8.8)"/><path class="cls-36" d="M425.32,454.29c-4.94.83-6.5,6.81-4.81,11,.72,1.77,3.62,1,2.89-.8-1.1-2.69-.68-6.69,2.72-7.27,1.9-.32,1.09-3.22-.8-2.89Z" transform="translate(-15.5 -8.8)"/><path class="cls-37" d="M281.84,801.59l25.7-58.54c-1.46-.86-2.9-1.75-4.39-2.55L276.62,801A5.47,5.47,0,0,1,281.84,801.59Z" transform="translate(-15.5 -8.8)"/><path class="cls-37" d="M328.17,693.35a5.34,5.34,0,0,1,1.11.2L435.5,451.62l-.33-.42-1.34,0a5,5,0,0,1-3.17-1.11L324.13,692.73a5.47,5.47,0,0,1,1.31-.16A4.84,4.84,0,0,1,328.17,693.35Z" transform="translate(-15.5 -8.8)"/><path class="cls-37" d="M467.39,374.63a5.46,5.46,0,0,1-3.32-.61l-12.45,28.36a5.08,5.08,0,0,0,3,0,5,5,0,0,1,2.31.53L468,377.63A5.56,5.56,0,0,1,467.39,374.63Z" transform="translate(-15.5 -8.8)"/><path class="cls-36" d="M376.39,754.72A9.09,9.09,0,0,0,381,743.38c-1.61-4.53-6.42-6.18-10.83-5.29-1.89.38-1.09,3.27.79,2.89,3.09-.62,6.51.59,7.37,3.9a6.09,6.09,0,0,1-3.49,7.25c-1.77.76-.24,3.35,1.51,2.59Z" transform="translate(-15.5 -8.8)"/><path class="cls-36" d="M372.07,739.86c-5.44.44-8.56,6.36-6.41,11.24.78,1.76,3.36.24,2.59-1.52-1.21-2.73.79-6.47,3.82-6.72,1.92-.16,1.93-3.16,0-3Z" transform="translate(-15.5 -8.8)"/><path class="cls-36" d="M500.76,469.12c5.81-2.41,9.68-8.88,7.1-15.08-2.3-5.53-9.17-7.67-13.74-3.61-1.44,1.28.69,3.4,2.13,2.12,3.28-2.92,8-.45,9.11,3.38,1.27,4.28-1.47,8.67-5.4,10.3-1.76.72-1,3.63.8,2.89Z" transform="translate(-15.5 -8.8)"/><path class="cls-36" d="M495,454.15c-4.94.85-6.5,6.83-4.79,11,.72,1.76,3.62,1,2.89-.8-1.1-2.69-.7-6.7,2.69-7.28,1.9-.33,1.1-3.22-.79-2.9Z" transform="translate(-15.5 -8.8)"/><path class="cls-37" d="M373.54,740.68,346,803.88a5.09,5.09,0,0,1,.76,1.44,6.87,6.87,0,0,1,1.26.33,5.12,5.12,0,0,1,2.19-.46c.24,0,.47,0,.7,0l27-62C376.47,742.35,375,741.47,373.54,740.68Z" transform="translate(-15.5 -8.8)"/><path class="cls-37" d="M399.13,691.81a5.36,5.36,0,0,1,1.16.12L505.16,451.47c-.11-.15-.23-.29-.34-.43l-1.33,0a4.91,4.91,0,0,1-3.18-1.09L394.73,692.07a4.53,4.53,0,0,1,1.35.75A4.74,4.74,0,0,1,399.13,691.81Z" transform="translate(-15.5 -8.8)"/><path class="cls-37" d="M536.68,372.73a5.45,5.45,0,0,1-2.19-1.13l-12.77,29.27a4.74,4.74,0,0,1,2.72,1,5.37,5.37,0,0,1,1.55-.22,5.9,5.9,0,0,1,.87.07l11.87-27.2A4.39,4.39,0,0,1,536.68,372.73Z" transform="translate(-15.5 -8.8)"/></g><g id="Ebene_5" data-name="Ebene 5"><path class="cls-38" d="M307.38,564.92a6.08,6.08,0,0,0-6.7,7.9,3.19,3.19,0,0,0,2.46,2.38,21.87,21.87,0,0,0-1,16c.64,1.91,1.54,3.73,2,5.69a28.16,28.16,0,0,1,.46,8.1,18.56,18.56,0,0,0,8.47-1.23c-1.58-1.88-1.79-4.57-1.37-7s1.38-4.7,1.88-7.09a19.42,19.42,0,0,0-3.19-15.06c.85-.23,1.18-1.24,1.34-2.11a9.4,9.4,0,0,0-.21-5.21,4,4,0,0,0-4.12-2.65" transform="translate(-15.5 -8.8)"/><path class="cls-36" d="M307.38,563.42c-7.13-.31-12.59,10.25-4.63,13.23l-.9-2.2a24.59,24.59,0,0,0-1.93,13.8,39.89,39.89,0,0,0,2.15,6.92,25.51,25.51,0,0,1,1.11,9.86,1.52,1.52,0,0,0,1.5,1.5,23.15,23.15,0,0,0,8.87-1.29,1.51,1.51,0,0,0,.89-2.2c-3.35-5.17,1.12-11.62,1.09-17.25a21.69,21.69,0,0,0-3.76-11.89l-.24,1.82c4.37-3.84,1.92-12.27-4-12.53-1.93-.08-1.92,2.92,0,3q4.93,3.3,1.93,7.41a1.51,1.51,0,0,0-.23,1.82c3.93,6,3.6,11.64,1.81,18.32-1,3.83-1.38,7.36.86,10.81l.9-2.2a21.24,21.24,0,0,1-8.07,1.18l1.5,1.5c.36-10.25-6.06-18.9-1.74-29.07a1.54,1.54,0,0,0-.9-2.2q-1.69-8.09,3.84-7.34c1.93.08,1.92-2.92,0-3Z" transform="translate(-15.5 -8.8)"/><path class="cls-36" d="M304.81,596.38c1-2,2.48-4.32,3-6.54.43-1.92-.81-4.14-1.42-5.91a1.52,1.52,0,0,0-2.51-.67,21.8,21.8,0,0,0-2.88,4.19c-.9,1.71,1.69,3.22,2.59,1.51a18.72,18.72,0,0,1,2.41-3.58l-2.5-.66c.56,1.63,1.59,3.53,1.07,5.22a40.14,40.14,0,0,1-2.33,4.92c-.82,1.74,1.77,3.26,2.59,1.52Z" transform="translate(-15.5 -8.8)"/><polyline class="cls-1" points="287.5 581.2 285.5 584.2 286.5 587.2 288.5 582.2 288.5 580.2"/></g><g id="Ebene_6" data-name="Ebene 6"><path class="cls-38" d="M393.38,524.92a6.08,6.08,0,0,0-6.7,7.9,3.19,3.19,0,0,0,2.46,2.38,21.87,21.87,0,0,0-1,16c.64,1.91,1.54,3.73,2,5.69a28.16,28.16,0,0,1,.46,8.1,18.56,18.56,0,0,0,8.47-1.23c-1.58-1.88-1.79-3.57-1.37-6s1.38-5.7,1.88-8.09a19.42,19.42,0,0,0-3.19-15.06c.85-.23,1.18-1.24,1.34-2.11a9.4,9.4,0,0,0-.21-5.21,4,4,0,0,0-4.12-2.65" transform="translate(-15.5 -8.8)"/><path class="cls-36" d="M393.38,523.42c-7.13-.31-12.59,10.25-4.63,13.23l-.9-2.2a24.59,24.59,0,0,0-1.93,13.8,39.89,39.89,0,0,0,2.15,6.92,25.51,25.51,0,0,1,1.11,9.86,1.52,1.52,0,0,0,1.5,1.5,23.15,23.15,0,0,0,8.87-1.29,1.51,1.51,0,0,0,.89-2.2c-3.09-4.37.68-10.81,1-15.67a21.5,21.5,0,0,0-3.7-13.47l-.24,1.82c4.37-3.84,1.92-12.27-4-12.53-1.93-.08-1.92,2.92,0,3q4.93,3.3,1.93,7.41a1.51,1.51,0,0,0-.23,1.82c4,6.11,3.52,11.87,1.89,18.65-.92,3.83-1.62,7.1.78,10.48l.9-2.2a21.24,21.24,0,0,1-8.07,1.18l1.5,1.5c.36-10.25-6.06-18.9-1.74-29.07a1.54,1.54,0,0,0-.9-2.2q-1.69-8.09,3.84-7.34c1.93.08,1.92-2.92,0-3Z" transform="translate(-15.5 -8.8)"/><path class="cls-36" d="M390.81,556.38c1-2,2.48-4.32,3-6.54.43-1.92-.81-4.14-1.42-5.91a1.52,1.52,0,0,0-2.51-.67,21.8,21.8,0,0,0-2.88,4.19c-.9,1.71,1.69,3.22,2.59,1.51a18.72,18.72,0,0,1,2.41-3.58l-2.5-.66c.56,1.63,1.59,3.53,1.07,5.22a40.14,40.14,0,0,1-2.33,4.92c-.82,1.74,1.77,3.26,2.59,1.52Z" transform="translate(-15.5 -8.8)"/><polyline class="cls-1" points="373.5 541.2 371.5 544.2 372.5 547.2 374.5 542.2 374.5 540.2"/><path class="cls-38" d="M360.38,599.92a6.08,6.08,0,0,0-6.7,7.9,3.19,3.19,0,0,0,2.46,2.38,21.87,21.87,0,0,0-1,16c.64,1.91,1.54,3.73,2,5.69a28.16,28.16,0,0,1,.46,8.1,18.56,18.56,0,0,0,8.47-1.23c-1.58-1.88-1.79-3.57-1.37-6s1.38-5.7,1.88-8.09a19.42,19.42,0,0,0-3.19-15.06c.85-.23,1.18-1.24,1.34-2.11a9.4,9.4,0,0,0-.21-5.21,4,4,0,0,0-4.12-2.65" transform="translate(-15.5 -8.8)"/><path class="cls-36" d="M360.38,598.42c-7.13-.31-12.59,10.25-4.63,13.23l-.9-2.2a24.59,24.59,0,0,0-1.93,13.8,39.89,39.89,0,0,0,2.15,6.92,25.51,25.51,0,0,1,1.11,9.86,1.52,1.52,0,0,0,1.5,1.5,23.15,23.15,0,0,0,8.87-1.29,1.51,1.51,0,0,0,.89-2.2c-3.09-4.37.68-10.81,1-15.67a21.5,21.5,0,0,0-3.7-13.47l-.24,1.82c4.37-3.84,1.92-12.27-4-12.53-1.93-.08-1.92,2.92,0,3q4.93,3.3,1.93,7.41a1.51,1.51,0,0,0-.23,1.82c4,6.11,3.52,11.87,1.89,18.65-.92,3.83-1.62,7.1.78,10.48l.9-2.2a21.24,21.24,0,0,1-8.07,1.18l1.5,1.5c.36-10.25-6.06-18.9-1.74-29.07a1.54,1.54,0,0,0-.9-2.2q-1.69-8.09,3.84-7.34c1.93.08,1.92-2.92,0-3Z" transform="translate(-15.5 -8.8)"/><path class="cls-36" d="M357.81,631.38c1-2,2.48-4.32,3-6.54.43-1.92-.81-4.14-1.42-5.91a1.52,1.52,0,0,0-2.51-.67,21.8,21.8,0,0,0-2.88,4.19c-.9,1.71,1.69,3.22,2.59,1.51a18.72,18.72,0,0,1,2.41-3.58l-2.5-.66c.56,1.63,1.59,3.53,1.07,5.22a40.14,40.14,0,0,1-2.33,4.92c-.82,1.74,1.77,3.26,2.59,1.52Z" transform="translate(-15.5 -8.8)"/><polyline class="cls-1" points="340.5 616.2 338.5 619.2 339.5 622.2 341.5 617.2 341.5 615.2"/><path class="cls-39" d="M774.38,507.92a6.08,6.08,0,0,0-6.7,7.9,3.19,3.19,0,0,0,2.46,2.38,21.87,21.87,0,0,0-1,16c.64,1.91,1.54,3.73,2,5.69a28.16,28.16,0,0,1,.46,8.1,18.56,18.56,0,0,0,8.47-1.23c-1.58-1.88-1.79-3.57-1.37-6s1.38-5.7,1.88-8.09a19.42,19.42,0,0,0-3.19-15.06c.85-.23,1.18-1.24,1.34-2.11a9.4,9.4,0,0,0-.21-5.21,4,4,0,0,0-4.12-2.65" transform="translate(-15.5 -8.8)"/><path class="cls-36" d="M774.38,506.42c-7.13-.31-12.59,10.25-4.63,13.23l-.9-2.2a24.59,24.59,0,0,0-1.93,13.8,39.89,39.89,0,0,0,2.15,6.92,25.51,25.51,0,0,1,1.11,9.86,1.52,1.52,0,0,0,1.5,1.5,23.15,23.15,0,0,0,8.87-1.29,1.51,1.51,0,0,0,.89-2.2c-3.09-4.37.68-10.81,1-15.67a21.5,21.5,0,0,0-3.7-13.47l-.24,1.82c4.37-3.84,1.92-12.27-4-12.53-1.93-.08-1.92,2.92,0,3q4.93,3.3,1.93,7.41a1.51,1.51,0,0,0-.23,1.82c4,6.11,3.52,11.87,1.89,18.65-.92,3.83-1.62,7.1.78,10.48l.9-2.2a21.24,21.24,0,0,1-8.07,1.18l1.5,1.5c.36-10.25-6.06-18.9-1.74-29.07a1.54,1.54,0,0,0-.9-2.2q-1.69-8.08,3.84-7.34c1.93.08,1.92-2.92,0-3Z" transform="translate(-15.5 -8.8)"/><path class="cls-36" d="M771.81,539.38c1-2,2.48-4.32,3-6.54.43-1.92-.81-4.14-1.42-5.91a1.52,1.52,0,0,0-2.51-.67,21.8,21.8,0,0,0-2.88,4.19c-.9,1.71,1.69,3.22,2.59,1.51a18.72,18.72,0,0,1,2.41-3.58l-2.5-.66c.56,1.63,1.59,3.53,1.07,5.22a40.14,40.14,0,0,1-2.33,4.92c-.82,1.74,1.77,3.26,2.59,1.52Z" transform="translate(-15.5 -8.8)"/><polyline class="cls-1" points="754.5 524.2 752.5 527.2 753.5 530.2 755.5 525.2 755.5 523.2"/><path class="cls-39" d="M743.52,588.93a6.08,6.08,0,0,0-6.35,8.18,3.17,3.17,0,0,0,2.56,2.28,21.89,21.89,0,0,0-.27,16.06c.72,1.88,1.7,3.67,2.28,5.6a28.36,28.36,0,0,1,.81,8.07,18.57,18.57,0,0,0,8.41-1.6c-1.66-1.8-1.94-3.49-1.62-5.91s1.12-5.76,1.52-8.18a19.38,19.38,0,0,0-3.83-14.9c.84-.27,1.12-1.29,1.24-2.17a9.32,9.32,0,0,0-.43-5.19,4,4,0,0,0-4.23-2.47" transform="translate(-15.5 -8.8)"/><path class="cls-36" d="M743.52,587.43c-7.07,0-12.31,10.76-4.19,13.41L738.28,599a24.28,24.28,0,0,0-1.19,13.7,33.48,33.48,0,0,0,2,5.6,26.92,26.92,0,0,1,2,10.83,1.52,1.52,0,0,0,1.5,1.5,23.2,23.2,0,0,0,8.81-1.65,1.53,1.53,0,0,0,.66-2.51c-3.22-4.15.62-11.38.58-16.18a21.58,21.58,0,0,0-4.28-12.51l-.23,1.82c4.15-4,1.54-12.39-4.48-12.39a1.5,1.5,0,0,0,0,3q5.1,3,2.36,7.27a1.5,1.5,0,0,0-.24,1.82c4.5,6.26,3.94,12.11,2.61,19.26-.73,3.89-.94,6.81,1.56,10l.66-2.5a21.26,21.26,0,0,1-8,1.54l1.5,1.5a29.32,29.32,0,0,0-2.1-11.65c-2.48-6-3.09-11.49-.77-17.68a1.54,1.54,0,0,0-1-1.85q-2.77-7.77,3.39-7.51a1.5,1.5,0,0,0,0-3Z" transform="translate(-15.5 -8.8)"/><path class="cls-36" d="M742.43,620.17c.85-2,2.36-4.41,2.61-6.6.22-1.85-1-3.86-1.69-5.54-.37-.92-1.73-1.65-2.51-.67a21.67,21.67,0,0,0-2.72,4.3c-.82,1.74,1.77,3.26,2.59,1.51a19.07,19.07,0,0,1,2.25-3.69l-2.51-.66c.57,1.44,1.78,3.33,1.48,4.85-.38,1.89-1.64,3.92-2.39,5.7s2.15,2.55,2.89.8Z" transform="translate(-15.5 -8.8)"/><polyline class="cls-1" points="724.72 605.38 722.86 608.46 723.98 611.41 725.77 606.33 725.68 604.33"/><path class="cls-39" d="M478.38,490.92a6.08,6.08,0,0,0-6.7,7.9,3.19,3.19,0,0,0,2.46,2.38,21.87,21.87,0,0,0-1,16c.64,1.91,1.54,3.73,2,5.69a28.16,28.16,0,0,1,.46,8.1,18.56,18.56,0,0,0,8.47-1.23c-1.58-1.88-1.79-3.57-1.37-6s1.38-5.7,1.88-8.09a19.42,19.42,0,0,0-3.19-15.06c.85-.23,1.18-1.24,1.34-2.11a9.4,9.4,0,0,0-.21-5.21,4,4,0,0,0-4.12-2.65" transform="translate(-15.5 -8.8)"/><path class="cls-36" d="M478.38,489.42c-7.13-.31-12.59,10.25-4.63,13.23l-.9-2.2a24.59,24.59,0,0,0-1.93,13.8,39.89,39.89,0,0,0,2.15,6.92,25.51,25.51,0,0,1,1.11,9.86,1.52,1.52,0,0,0,1.5,1.5,23.15,23.15,0,0,0,8.87-1.29,1.51,1.51,0,0,0,.89-2.2c-3.09-4.37.68-10.81,1-15.67a21.5,21.5,0,0,0-3.7-13.47l-.24,1.82c4.37-3.84,1.92-12.27-4-12.53-1.93-.08-1.92,2.92,0,3q4.93,3.3,1.93,7.41a1.51,1.51,0,0,0-.23,1.82c4,6.11,3.52,11.87,1.89,18.65-.92,3.83-1.62,7.1.78,10.48l.9-2.2a21.24,21.24,0,0,1-8.07,1.18l1.5,1.5c.36-10.25-6.06-18.9-1.74-29.07a1.54,1.54,0,0,0-.9-2.2q-1.69-8.08,3.84-7.34c1.93.08,1.92-2.92,0-3Z" transform="translate(-15.5 -8.8)"/><path class="cls-36" d="M475.81,522.38c1-2,2.48-4.32,3-6.54.43-1.92-.81-4.14-1.42-5.91a1.52,1.52,0,0,0-2.51-.67,21.8,21.8,0,0,0-2.88,4.19c-.9,1.71,1.69,3.22,2.59,1.51a18.72,18.72,0,0,1,2.41-3.58l-2.5-.66c.56,1.63,1.59,3.53,1.07,5.22a40.14,40.14,0,0,1-2.33,4.92c-.82,1.74,1.77,3.26,2.59,1.52Z" transform="translate(-15.5 -8.8)"/><polyline class="cls-1" points="458.5 507.2 456.5 510.2 457.5 513.2 459.5 508.2 459.5 506.2"/><path class="cls-39" d="M417.38,629.92a6.08,6.08,0,0,0-6.7,7.9,3.19,3.19,0,0,0,2.46,2.38,21.87,21.87,0,0,0-1,16c.64,1.91,1.54,3.73,2,5.69a28.16,28.16,0,0,1,.46,8.1,18.56,18.56,0,0,0,8.47-1.23c-1.58-1.88-1.79-3.57-1.37-6s1.38-5.7,1.88-8.09a19.42,19.42,0,0,0-3.19-15.06c.85-.23,1.18-1.24,1.34-2.11a9.4,9.4,0,0,0-.21-5.21,4,4,0,0,0-4.12-2.65" transform="translate(-15.5 -8.8)"/><path class="cls-36" d="M417.38,628.42c-7.13-.31-12.59,10.25-4.63,13.23l-.9-2.2a24.59,24.59,0,0,0-1.93,13.8,39.89,39.89,0,0,0,2.15,6.92,25.51,25.51,0,0,1,1.11,9.86,1.52,1.52,0,0,0,1.5,1.5,23.15,23.15,0,0,0,8.87-1.29,1.51,1.51,0,0,0,.89-2.2c-3.09-4.37.68-10.81,1-15.67a21.5,21.5,0,0,0-3.7-13.47l-.24,1.82c4.37-3.84,1.92-12.27-4-12.53-1.93-.08-1.92,2.92,0,3q4.93,3.3,1.93,7.41a1.51,1.51,0,0,0-.23,1.82c4,6.11,3.52,11.87,1.89,18.65-.92,3.83-1.62,7.1.78,10.48l.9-2.2a21.24,21.24,0,0,1-8.07,1.18l1.5,1.5c.36-10.25-6.06-18.9-1.74-29.07a1.54,1.54,0,0,0-.9-2.2q-1.69-8.09,3.84-7.34c1.93.08,1.92-2.92,0-3Z" transform="translate(-15.5 -8.8)"/><path class="cls-36" d="M414.81,661.38c1-2,2.48-4.32,3-6.54.43-1.92-.81-4.14-1.42-5.91a1.52,1.52,0,0,0-2.51-.67,21.8,21.8,0,0,0-2.88,4.19c-.9,1.71,1.69,3.22,2.59,1.51a18.72,18.72,0,0,1,2.41-3.58l-2.5-.66c.56,1.63,1.59,3.53,1.07,5.22a40.14,40.14,0,0,1-2.33,4.92c-.82,1.74,1.77,3.26,2.59,1.52Z" transform="translate(-15.5 -8.8)"/><polyline class="cls-1" points="397.5 646.2 395.5 649.2 396.5 652.2 398.5 647.2 398.5 645.2"/><path class="cls-39" d="M450.38,554.92a6.08,6.08,0,0,0-6.7,7.9,3.19,3.19,0,0,0,2.46,2.38,21.87,21.87,0,0,0-1,16c.64,1.91,1.54,3.73,2,5.69a28.16,28.16,0,0,1,.46,8.1,18.56,18.56,0,0,0,8.47-1.23c-1.58-1.88-1.79-3.57-1.37-6s1.38-5.7,1.88-8.09a19.42,19.42,0,0,0-3.19-15.06c.85-.23,1.18-1.24,1.34-2.11a9.4,9.4,0,0,0-.21-5.21,4,4,0,0,0-4.12-2.65" transform="translate(-15.5 -8.8)"/><path class="cls-36" d="M450.38,553.42c-7.13-.31-12.59,10.25-4.63,13.23l-.9-2.2a24.59,24.59,0,0,0-1.93,13.8,39.89,39.89,0,0,0,2.15,6.92,25.51,25.51,0,0,1,1.11,9.86,1.52,1.52,0,0,0,1.5,1.5,23.15,23.15,0,0,0,8.87-1.29,1.51,1.51,0,0,0,.89-2.2c-3.09-4.37.68-10.81,1-15.67a21.5,21.5,0,0,0-3.7-13.47l-.24,1.82c4.37-3.84,1.92-12.27-4-12.53-1.93-.08-1.92,2.92,0,3q4.93,3.3,1.93,7.41a1.51,1.51,0,0,0-.23,1.82c4,6.11,3.52,11.87,1.89,18.65-.92,3.83-1.62,7.1.78,10.48l.9-2.2a21.24,21.24,0,0,1-8.07,1.18l1.5,1.5c.36-10.25-6.06-18.9-1.74-29.07a1.54,1.54,0,0,0-.9-2.2q-1.69-8.09,3.84-7.34c1.93.08,1.92-2.92,0-3Z" transform="translate(-15.5 -8.8)"/><path class="cls-36" d="M447.81,586.38c1-2,2.48-4.32,3-6.54.43-1.92-.81-4.14-1.42-5.91a1.52,1.52,0,0,0-2.51-.67,21.8,21.8,0,0,0-2.88,4.19c-.9,1.71,1.69,3.22,2.59,1.51a18.72,18.72,0,0,1,2.41-3.58l-2.5-.66c.56,1.63,1.59,3.53,1.07,5.22a40.14,40.14,0,0,1-2.33,4.92c-.82,1.74,1.77,3.26,2.59,1.52Z" transform="translate(-15.5 -8.8)"/><polyline class="cls-1" points="430.5 571.2 428.5 574.2 429.5 577.2 431.5 572.2 431.5 570.2"/><path class="cls-38" d="M707.38,481.92a6.08,6.08,0,0,0-6.7,7.9,3.19,3.19,0,0,0,2.46,2.38,21.87,21.87,0,0,0-1,16c.64,1.91,1.54,3.73,2,5.69a28.16,28.16,0,0,1,.46,8.1,18.56,18.56,0,0,0,8.47-1.23c-1.58-1.88-1.79-3.57-1.37-6s1.38-5.7,1.88-8.09a19.42,19.42,0,0,0-3.19-15.06c.85-.23,1.18-1.24,1.34-2.11a9.4,9.4,0,0,0-.21-5.21,4,4,0,0,0-4.12-2.65" transform="translate(-15.5 -8.8)"/><path class="cls-36" d="M707.38,480.42c-7.13-.31-12.59,10.25-4.63,13.23l-.9-2.2a24.59,24.59,0,0,0-1.93,13.8,39.89,39.89,0,0,0,2.15,6.92,25.51,25.51,0,0,1,1.11,9.86,1.52,1.52,0,0,0,1.5,1.5,23.15,23.15,0,0,0,8.87-1.29,1.51,1.51,0,0,0,.89-2.2c-3.09-4.37.68-10.81,1-15.67a21.5,21.5,0,0,0-3.7-13.47l-.24,1.82c4.37-3.84,1.92-12.27-4-12.53-1.93-.08-1.92,2.92,0,3q4.93,3.3,1.93,7.41a1.51,1.51,0,0,0-.23,1.82c4,6.11,3.52,11.87,1.89,18.65-.92,3.83-1.62,7.1.78,10.48l.9-2.2a21.24,21.24,0,0,1-8.07,1.18l1.5,1.5c.36-10.25-6.06-18.9-1.74-29.07a1.54,1.54,0,0,0-.9-2.2q-1.69-8.08,3.84-7.34c1.93.08,1.92-2.92,0-3Z" transform="translate(-15.5 -8.8)"/><path class="cls-36" d="M704.81,513.38c1-2.05,2.48-4.32,3-6.54.43-1.92-.81-4.14-1.42-5.91a1.52,1.52,0,0,0-2.51-.67,21.8,21.8,0,0,0-2.88,4.19c-.9,1.71,1.69,3.22,2.59,1.51a18.72,18.72,0,0,1,2.41-3.58l-2.5-.66c.56,1.63,1.59,3.53,1.07,5.22a40.14,40.14,0,0,1-2.33,4.92c-.82,1.74,1.77,3.26,2.59,1.52Z" transform="translate(-15.5 -8.8)"/><polyline class="cls-1" points="687.5 498.2 685.5 501.2 686.5 504.2 688.5 499.2 688.5 497.2"/><path class="cls-38" d="M650.38,623.92a6.08,6.08,0,0,0-6.7,7.9,3.19,3.19,0,0,0,2.46,2.38,21.87,21.87,0,0,0-1,16c.64,1.91,1.54,3.73,2,5.69a28.16,28.16,0,0,1,.46,8.1,18.56,18.56,0,0,0,8.47-1.23c-1.58-1.88-1.79-3.57-1.37-6s1.38-5.7,1.88-8.09a19.42,19.42,0,0,0-3.19-15.06c.85-.23,1.18-1.24,1.34-2.11a9.4,9.4,0,0,0-.21-5.21,4,4,0,0,0-4.12-2.65" transform="translate(-15.5 -8.8)"/><path class="cls-36" d="M650.38,622.42c-7.13-.31-12.59,10.25-4.63,13.23l-.9-2.2a24.59,24.59,0,0,0-1.93,13.8,39.89,39.89,0,0,0,2.15,6.92,25.51,25.51,0,0,1,1.11,9.86,1.52,1.52,0,0,0,1.5,1.5,23.15,23.15,0,0,0,8.87-1.29,1.51,1.51,0,0,0,.89-2.2c-3.09-4.37.68-10.81,1-15.67a21.5,21.5,0,0,0-3.7-13.47l-.24,1.82c4.37-3.84,1.92-12.27-4-12.53-1.93-.08-1.92,2.92,0,3q4.93,3.3,1.93,7.41a1.51,1.51,0,0,0-.23,1.82c4,6.11,3.52,11.87,1.89,18.65-.92,3.83-1.62,7.1.78,10.48l.9-2.2a21.24,21.24,0,0,1-8.07,1.18l1.5,1.5c.36-10.25-6.06-18.9-1.74-29.07a1.54,1.54,0,0,0-.9-2.2q-1.69-8.09,3.84-7.34c1.93.08,1.92-2.92,0-3Z" transform="translate(-15.5 -8.8)"/><path class="cls-36" d="M647.81,655.38c1-2,2.48-4.32,3-6.54.43-1.92-.81-4.14-1.42-5.91a1.52,1.52,0,0,0-2.51-.67,21.8,21.8,0,0,0-2.88,4.19c-.9,1.71,1.69,3.22,2.59,1.51a18.72,18.72,0,0,1,2.41-3.58l-2.5-.66c.56,1.63,1.59,3.53,1.07,5.22a40.14,40.14,0,0,1-2.33,4.92c-.82,1.74,1.77,3.26,2.59,1.52Z" transform="translate(-15.5 -8.8)"/><polyline class="cls-1" points="630.5 640.2 628.5 643.2 629.5 646.2 631.5 641.2 631.5 639.2"/><path class="cls-38" d="M681.38,545.92a6.08,6.08,0,0,0-6.7,7.9,3.19,3.19,0,0,0,2.46,2.38,21.87,21.87,0,0,0-1,16c.64,1.91,1.54,3.73,2,5.69a28.16,28.16,0,0,1,.46,8.1,18.56,18.56,0,0,0,8.47-1.23c-1.58-1.88-1.79-3.57-1.37-6s1.38-5.7,1.88-8.09a19.42,19.42,0,0,0-3.19-15.06c.85-.23,1.18-1.24,1.34-2.11a9.4,9.4,0,0,0-.21-5.21,4,4,0,0,0-4.12-2.65" transform="translate(-15.5 -8.8)"/><path class="cls-36" d="M681.38,544.42c-7.13-.31-12.59,10.25-4.63,13.23l-.9-2.2a24.59,24.59,0,0,0-1.93,13.8,39.89,39.89,0,0,0,2.15,6.92,25.51,25.51,0,0,1,1.11,9.86,1.52,1.52,0,0,0,1.5,1.5,23.15,23.15,0,0,0,8.87-1.29,1.51,1.51,0,0,0,.89-2.2c-3.09-4.37.68-10.81,1-15.67a21.5,21.5,0,0,0-3.7-13.47l-.24,1.82c4.37-3.84,1.92-12.27-4-12.53-1.93-.08-1.92,2.92,0,3q4.93,3.3,1.93,7.41a1.51,1.51,0,0,0-.23,1.82c4,6.11,3.52,11.87,1.89,18.65-.92,3.83-1.62,7.1.78,10.48l.9-2.2a21.24,21.24,0,0,1-8.07,1.18l1.5,1.5c.36-10.25-6.06-18.9-1.74-29.07a1.54,1.54,0,0,0-.9-2.2q-1.69-8.09,3.84-7.34c1.93.08,1.92-2.92,0-3Z" transform="translate(-15.5 -8.8)"/><path class="cls-36" d="M678.81,577.38c1-2,2.48-4.32,3-6.54.43-1.92-.81-4.14-1.42-5.91a1.52,1.52,0,0,0-2.51-.67,21.8,21.8,0,0,0-2.88,4.19c-.9,1.71,1.69,3.22,2.59,1.51a18.72,18.72,0,0,1,2.41-3.58l-2.5-.66c.56,1.63,1.59,3.53,1.07,5.22a40.14,40.14,0,0,1-2.33,4.92c-.82,1.74,1.77,3.26,2.59,1.52Z" transform="translate(-15.5 -8.8)"/><polyline class="cls-1" points="661.5 562.2 659.5 565.2 660.5 568.2 662.5 563.2 662.5 561.2"/><path class="cls-39" d="M827.38,553.92a6.08,6.08,0,0,0-6.7,7.9,3.19,3.19,0,0,0,2.46,2.38,21.87,21.87,0,0,0-1,16c.64,1.91,1.54,3.73,2,5.69a28.16,28.16,0,0,1,.46,8.1,18.56,18.56,0,0,0,8.47-1.23c-1.58-1.88-1.79-3.57-1.37-6s1.38-5.7,1.88-8.09a19.42,19.42,0,0,0-3.19-15.06c.85-.23,1.18-1.24,1.34-2.11a9.4,9.4,0,0,0-.21-5.21,4,4,0,0,0-4.12-2.65" transform="translate(-15.5 -8.8)"/><path class="cls-36" d="M827.38,552.42c-7.13-.31-12.59,10.25-4.63,13.23l-.9-2.2a24.59,24.59,0,0,0-1.93,13.8,39.89,39.89,0,0,0,2.15,6.92,25.51,25.51,0,0,1,1.11,9.86,1.52,1.52,0,0,0,1.5,1.5,23.15,23.15,0,0,0,8.87-1.29,1.51,1.51,0,0,0,.89-2.2c-3.09-4.37.68-10.81,1-15.67a21.5,21.5,0,0,0-3.7-13.47l-.24,1.82c4.37-3.84,1.92-12.27-4-12.53-1.93-.08-1.92,2.92,0,3q4.93,3.3,1.93,7.41a1.51,1.51,0,0,0-.23,1.82c4,6.11,3.52,11.87,1.89,18.65-.92,3.83-1.62,7.1.78,10.48l.9-2.2a21.24,21.24,0,0,1-8.07,1.18l1.5,1.5c.36-10.25-6.06-18.9-1.74-29.07a1.54,1.54,0,0,0-.9-2.2q-1.69-8.09,3.84-7.34c1.93.08,1.92-2.92,0-3Z" transform="translate(-15.5 -8.8)"/><path class="cls-36" d="M824.81,585.38c1-2,2.48-4.32,3-6.54.43-1.92-.81-4.14-1.42-5.91a1.52,1.52,0,0,0-2.51-.67,21.8,21.8,0,0,0-2.88,4.19c-.9,1.71,1.69,3.22,2.59,1.51a18.72,18.72,0,0,1,2.41-3.58l-2.5-.66c.56,1.63,1.59,3.53,1.07,5.22a40.14,40.14,0,0,1-2.33,4.92c-.82,1.74,1.77,3.26,2.59,1.52Z" transform="translate(-15.5 -8.8)"/><polyline class="cls-1" points="807.5 570.2 805.5 573.2 806.5 576.2 808.5 571.2 808.5 569.2"/><path class="cls-38" d="M559.38,468.92a6.08,6.08,0,0,0-6.7,7.9,3.19,3.19,0,0,0,2.46,2.38,21.87,21.87,0,0,0-1,16c.64,1.91,1.54,3.73,2,5.69a28.16,28.16,0,0,1,.46,8.1,18.56,18.56,0,0,0,8.47-1.23c-1.58-1.88-1.79-3.57-1.37-6s1.38-5.7,1.88-8.09a19.42,19.42,0,0,0-3.19-15.06c.85-.23,1.18-1.24,1.34-2.11a9.4,9.4,0,0,0-.21-5.21,4,4,0,0,0-4.12-2.65" transform="translate(-15.5 -8.8)"/><path class="cls-36" d="M559.38,467.42c-7.13-.31-12.59,10.25-4.63,13.23l-.9-2.2a24.59,24.59,0,0,0-1.93,13.8,39.89,39.89,0,0,0,2.15,6.92,25.51,25.51,0,0,1,1.11,9.86,1.52,1.52,0,0,0,1.5,1.5,23.15,23.15,0,0,0,8.87-1.29,1.51,1.51,0,0,0,.89-2.2c-3.09-4.37.68-10.81,1-15.67a21.5,21.5,0,0,0-3.7-13.47l-.24,1.82c4.37-3.84,1.92-12.27-4-12.53-1.93-.08-1.92,2.92,0,3q4.93,3.3,1.93,7.41a1.51,1.51,0,0,0-.23,1.82c4,6.11,3.52,11.87,1.89,18.65-.92,3.83-1.62,7.1.78,10.48l.9-2.2a21.24,21.24,0,0,1-8.07,1.18l1.5,1.5c.36-10.25-6.06-18.9-1.74-29.07a1.54,1.54,0,0,0-.9-2.2q-1.69-8.08,3.84-7.34c1.93.08,1.92-2.92,0-3Z" transform="translate(-15.5 -8.8)"/><path class="cls-36" d="M556.81,500.38c1-2.05,2.48-4.32,3-6.54.43-1.92-.81-4.14-1.42-5.91a1.52,1.52,0,0,0-2.51-.67,21.8,21.8,0,0,0-2.88,4.19c-.9,1.71,1.69,3.22,2.59,1.51a18.72,18.72,0,0,1,2.41-3.58l-2.5-.66c.56,1.63,1.59,3.53,1.07,5.22a40.14,40.14,0,0,1-2.33,4.92c-.82,1.74,1.77,3.26,2.59,1.52Z" transform="translate(-15.5 -8.8)"/><polyline class="cls-1" points="539.5 485.2 537.5 488.2 538.5 491.2 540.5 486.2 540.5 484.2"/><path class="cls-38" d="M484.38,642.92a6.08,6.08,0,0,0-6.7,7.9,3.19,3.19,0,0,0,2.46,2.38,21.87,21.87,0,0,0-1,16c.64,1.91,1.54,3.73,2,5.69a28.16,28.16,0,0,1,.46,8.1,18.56,18.56,0,0,0,8.47-1.23c-1.58-1.88-1.79-3.57-1.37-6s1.38-5.7,1.88-8.09a19.42,19.42,0,0,0-3.19-15.06c.85-.23,1.18-1.24,1.34-2.11a9.4,9.4,0,0,0-.21-5.21,4,4,0,0,0-4.12-2.65" transform="translate(-15.5 -8.8)"/><path class="cls-36" d="M484.38,641.42c-7.13-.31-12.59,10.25-4.63,13.23l-.9-2.2a24.59,24.59,0,0,0-1.93,13.8,39.89,39.89,0,0,0,2.15,6.92,25.51,25.51,0,0,1,1.11,9.86,1.52,1.52,0,0,0,1.5,1.5,23.15,23.15,0,0,0,8.87-1.29,1.51,1.51,0,0,0,.89-2.2c-3.09-4.37.68-10.81,1-15.67a21.5,21.5,0,0,0-3.7-13.47l-.24,1.82c4.37-3.84,1.92-12.27-4-12.53-1.93-.08-1.92,2.92,0,3q4.93,3.3,1.93,7.41a1.51,1.51,0,0,0-.23,1.82c4,6.11,3.52,11.87,1.89,18.65-.92,3.83-1.62,7.1.78,10.48l.9-2.2a21.24,21.24,0,0,1-8.07,1.18l1.5,1.5c.36-10.25-6.06-18.9-1.74-29.07a1.54,1.54,0,0,0-.9-2.2q-1.69-8.09,3.84-7.34c1.93.08,1.92-2.92,0-3Z" transform="translate(-15.5 -8.8)"/><path class="cls-36" d="M481.81,674.38c1-2,2.48-4.32,3-6.54.43-1.92-.81-4.14-1.42-5.91a1.52,1.52,0,0,0-2.51-.67,21.8,21.8,0,0,0-2.88,4.19c-.9,1.71,1.69,3.22,2.59,1.51a18.72,18.72,0,0,1,2.41-3.58l-2.5-.66c.56,1.63,1.59,3.53,1.07,5.22a40.14,40.14,0,0,1-2.33,4.92c-.82,1.74,1.77,3.26,2.59,1.52Z" transform="translate(-15.5 -8.8)"/><polyline class="cls-1" points="464.5 659.2 462.5 662.2 463.5 665.2 465.5 660.2 465.5 658.2"/><path class="cls-38" d="M523.38,551.92a6.08,6.08,0,0,0-6.7,7.9,3.19,3.19,0,0,0,2.46,2.38,21.87,21.87,0,0,0-1,16c.64,1.91,1.54,3.73,2,5.69a28.16,28.16,0,0,1,.46,8.1,18.56,18.56,0,0,0,8.47-1.23c-1.58-1.88-1.79-3.57-1.37-6s1.38-5.7,1.88-8.09a19.42,19.42,0,0,0-3.19-15.06c.85-.23,1.18-1.24,1.34-2.11a9.4,9.4,0,0,0-.21-5.21,4,4,0,0,0-4.12-2.65" transform="translate(-15.5 -8.8)"/><path class="cls-36" d="M523.38,550.42c-7.13-.31-12.59,10.25-4.63,13.23l-.9-2.2a24.59,24.59,0,0,0-1.93,13.8,39.89,39.89,0,0,0,2.15,6.92,25.51,25.51,0,0,1,1.11,9.86,1.52,1.52,0,0,0,1.5,1.5,23.15,23.15,0,0,0,8.87-1.29,1.51,1.51,0,0,0,.89-2.2c-3.09-4.37.68-10.81,1-15.67a21.5,21.5,0,0,0-3.7-13.47l-.24,1.82c4.37-3.84,1.92-12.27-4-12.53-1.93-.08-1.92,2.92,0,3q4.93,3.3,1.93,7.41a1.51,1.51,0,0,0-.23,1.82c4,6.11,3.52,11.87,1.89,18.65-.92,3.83-1.62,7.1.78,10.48l.9-2.2a21.24,21.24,0,0,1-8.07,1.18l1.5,1.5c.36-10.25-6.06-18.9-1.74-29.07a1.54,1.54,0,0,0-.9-2.2q-1.69-8.09,3.84-7.34c1.93.08,1.92-2.92,0-3Z" transform="translate(-15.5 -8.8)"/><path class="cls-36" d="M520.81,583.38c1-2,2.48-4.32,3-6.54.43-1.92-.81-4.14-1.42-5.91a1.52,1.52,0,0,0-2.51-.67,21.8,21.8,0,0,0-2.88,4.19c-.9,1.71,1.69,3.22,2.59,1.51a18.72,18.72,0,0,1,2.41-3.58l-2.5-.66c.56,1.63,1.59,3.53,1.07,5.22a40.14,40.14,0,0,1-2.33,4.92c-.82,1.74,1.77,3.26,2.59,1.52Z" transform="translate(-15.5 -8.8)"/><polyline class="cls-1" points="503.5 568.2 501.5 571.2 502.5 574.2 504.5 569.2 504.5 567.2"/><path class="cls-38" d="M505.38,594.92a6.08,6.08,0,0,0-6.7,7.9,3.19,3.19,0,0,0,2.46,2.38,21.87,21.87,0,0,0-1,16c.64,1.91,1.54,3.73,2,5.69a28.16,28.16,0,0,1,.46,8.1,18.56,18.56,0,0,0,8.47-1.23c-1.58-1.88-1.79-3.57-1.37-6s1.38-5.7,1.88-8.09a19.42,19.42,0,0,0-3.19-15.06c.85-.23,1.18-1.24,1.34-2.11a9.4,9.4,0,0,0-.21-5.21,4,4,0,0,0-4.12-2.65" transform="translate(-15.5 -8.8)"/><path class="cls-36" d="M505.38,593.42c-7.13-.31-12.59,10.25-4.63,13.23l-.9-2.2a24.59,24.59,0,0,0-1.93,13.8,39.89,39.89,0,0,0,2.15,6.92,25.51,25.51,0,0,1,1.11,9.86,1.52,1.52,0,0,0,1.5,1.5,23.15,23.15,0,0,0,8.87-1.29,1.51,1.51,0,0,0,.89-2.2c-3.09-4.37.68-10.81,1-15.67a21.5,21.5,0,0,0-3.7-13.47l-.24,1.82c4.37-3.84,1.92-12.27-4-12.53-1.93-.08-1.92,2.92,0,3q4.93,3.3,1.93,7.41a1.51,1.51,0,0,0-.23,1.82c4,6.11,3.52,11.87,1.89,18.65-.92,3.83-1.62,7.1.78,10.48l.9-2.2a21.24,21.24,0,0,1-8.07,1.18l1.5,1.5c.36-10.25-6.06-18.9-1.74-29.07a1.54,1.54,0,0,0-.9-2.2q-1.69-8.09,3.84-7.34c1.93.08,1.92-2.92,0-3Z" transform="translate(-15.5 -8.8)"/><path class="cls-36" d="M502.81,626.38c1-2,2.48-4.32,3-6.54.43-1.92-.81-4.14-1.42-5.91a1.52,1.52,0,0,0-2.51-.67,21.8,21.8,0,0,0-2.88,4.19c-.9,1.71,1.69,3.22,2.59,1.51a18.72,18.72,0,0,1,2.41-3.58l-2.5-.66c.56,1.63,1.59,3.53,1.07,5.22a40.14,40.14,0,0,1-2.33,4.92c-.82,1.74,1.77,3.26,2.59,1.52Z" transform="translate(-15.5 -8.8)"/><polyline class="cls-1" points="485.5 611.2 483.5 614.2 484.5 617.2 486.5 612.2 486.5 610.2"/><path class="cls-38" d="M543.38,506.92a6.08,6.08,0,0,0-6.7,7.9,3.19,3.19,0,0,0,2.46,2.38,21.87,21.87,0,0,0-1,16c.64,1.91,1.54,3.73,2,5.69a28.16,28.16,0,0,1,.46,8.1,18.56,18.56,0,0,0,8.47-1.23c-1.58-1.88-1.79-3.57-1.37-6s1.38-5.7,1.88-8.09a19.42,19.42,0,0,0-3.19-15.06c.85-.23,1.18-1.24,1.34-2.11a9.4,9.4,0,0,0-.21-5.21,4,4,0,0,0-4.12-2.65" transform="translate(-15.5 -8.8)"/><path class="cls-36" d="M543.38,505.42c-7.13-.31-12.59,10.25-4.63,13.23l-.9-2.2a24.59,24.59,0,0,0-1.93,13.8,39.89,39.89,0,0,0,2.15,6.92,25.51,25.51,0,0,1,1.11,9.86,1.52,1.52,0,0,0,1.5,1.5,23.15,23.15,0,0,0,8.87-1.29,1.51,1.51,0,0,0,.89-2.2c-3.09-4.37.68-10.81,1-15.67a21.5,21.5,0,0,0-3.7-13.47l-.24,1.82c4.37-3.84,1.92-12.27-4-12.53-1.93-.08-1.92,2.92,0,3q4.93,3.3,1.93,7.41a1.51,1.51,0,0,0-.23,1.82c4,6.11,3.52,11.87,1.89,18.65-.92,3.83-1.62,7.1.78,10.48l.9-2.2a21.24,21.24,0,0,1-8.07,1.18l1.5,1.5c.36-10.25-6.06-18.9-1.74-29.07a1.54,1.54,0,0,0-.9-2.2q-1.69-8.08,3.84-7.34c1.93.08,1.92-2.92,0-3Z" transform="translate(-15.5 -8.8)"/><path class="cls-36" d="M540.81,538.38c1-2,2.48-4.32,3-6.54.43-1.92-.81-4.14-1.42-5.91a1.52,1.52,0,0,0-2.51-.67,21.8,21.8,0,0,0-2.88,4.19c-.9,1.71,1.69,3.22,2.59,1.51a18.72,18.72,0,0,1,2.41-3.58l-2.5-.66c.56,1.63,1.59,3.53,1.07,5.22a40.14,40.14,0,0,1-2.33,4.92c-.82,1.74,1.77,3.26,2.59,1.52Z" transform="translate(-15.5 -8.8)"/><polyline class="cls-1" points="523.5 523.2 521.5 526.2 522.5 529.2 524.5 524.2 524.5 522.2"/><path class="cls-39" d="M637.38,465.92a6.08,6.08,0,0,0-6.7,7.9,3.19,3.19,0,0,0,2.46,2.38,21.87,21.87,0,0,0-1,16c.64,1.91,1.54,3.73,2,5.69a28.16,28.16,0,0,1,.46,8.1,18.56,18.56,0,0,0,8.47-1.23c-1.58-1.88-1.79-3.57-1.37-6s1.38-5.7,1.88-8.09a19.42,19.42,0,0,0-3.19-15.06c.85-.23,1.18-1.24,1.34-2.11a9.4,9.4,0,0,0-.21-5.21,4,4,0,0,0-4.12-2.65" transform="translate(-15.5 -8.8)"/><path class="cls-36" d="M637.38,464.42c-7.13-.31-12.59,10.25-4.63,13.23l-.9-2.2a24.59,24.59,0,0,0-1.93,13.8,39.89,39.89,0,0,0,2.15,6.92,25.51,25.51,0,0,1,1.11,9.86,1.52,1.52,0,0,0,1.5,1.5,23.15,23.15,0,0,0,8.87-1.29,1.51,1.51,0,0,0,.89-2.2c-3.09-4.37.68-10.81,1-15.67a21.5,21.5,0,0,0-3.7-13.47l-.24,1.82c4.37-3.84,1.92-12.27-4-12.53-1.93-.08-1.92,2.92,0,3q4.93,3.3,1.93,7.41a1.51,1.51,0,0,0-.23,1.82c4,6.11,3.52,11.87,1.89,18.65-.92,3.83-1.62,7.1.78,10.48l.9-2.2a21.24,21.24,0,0,1-8.07,1.18l1.5,1.5c.36-10.25-6.06-18.9-1.74-29.07a1.54,1.54,0,0,0-.9-2.2q-1.69-8.08,3.84-7.34c1.93.08,1.92-2.92,0-3Z" transform="translate(-15.5 -8.8)"/><path class="cls-36" d="M634.81,497.38c1-2.05,2.48-4.32,3-6.54.43-1.92-.81-4.14-1.42-5.91a1.52,1.52,0,0,0-2.51-.67,21.8,21.8,0,0,0-2.88,4.19c-.9,1.71,1.69,3.22,2.59,1.51a18.72,18.72,0,0,1,2.41-3.58l-2.5-.66c.56,1.63,1.59,3.53,1.07,5.22a40.14,40.14,0,0,1-2.33,4.92c-.82,1.74,1.77,3.26,2.59,1.52Z" transform="translate(-15.5 -8.8)"/><polyline class="cls-1" points="617.5 482.2 615.5 485.2 616.5 488.2 618.5 483.2 618.5 481.2"/><path class="cls-39" d="M562.38,639.92a6.08,6.08,0,0,0-6.7,7.9,3.19,3.19,0,0,0,2.46,2.38,21.87,21.87,0,0,0-1,16c.64,1.91,1.54,3.73,2,5.69a28.16,28.16,0,0,1,.46,8.1,18.56,18.56,0,0,0,8.47-1.23c-1.58-1.88-1.79-3.57-1.37-6s1.38-5.7,1.88-8.09a19.42,19.42,0,0,0-3.19-15.06c.85-.23,1.18-1.24,1.34-2.11a9.4,9.4,0,0,0-.21-5.21,4,4,0,0,0-4.12-2.65" transform="translate(-15.5 -8.8)"/><path class="cls-36" d="M562.38,638.42c-7.13-.31-12.59,10.25-4.63,13.23l-.9-2.2a24.59,24.59,0,0,0-1.93,13.8,39.89,39.89,0,0,0,2.15,6.92,25.51,25.51,0,0,1,1.11,9.86,1.52,1.52,0,0,0,1.5,1.5,23.15,23.15,0,0,0,8.87-1.29,1.51,1.51,0,0,0,.89-2.2c-3.09-4.37.68-10.81,1-15.67a21.5,21.5,0,0,0-3.7-13.47l-.24,1.82c4.37-3.84,1.92-12.27-4-12.53-1.93-.08-1.92,2.92,0,3q4.93,3.3,1.93,7.41a1.51,1.51,0,0,0-.23,1.82c4,6.11,3.52,11.87,1.89,18.65-.92,3.83-1.62,7.1.78,10.48l.9-2.2a21.24,21.24,0,0,1-8.07,1.18l1.5,1.5c.36-10.25-6.06-18.9-1.74-29.07a1.54,1.54,0,0,0-.9-2.2q-1.69-8.09,3.84-7.34c1.93.08,1.92-2.92,0-3Z" transform="translate(-15.5 -8.8)"/><path class="cls-36" d="M559.81,671.38c1-2,2.48-4.32,3-6.54.43-1.92-.81-4.14-1.42-5.91a1.52,1.52,0,0,0-2.51-.67,21.8,21.8,0,0,0-2.88,4.19c-.9,1.71,1.69,3.22,2.59,1.51a18.72,18.72,0,0,1,2.41-3.58l-2.5-.66c.56,1.63,1.59,3.53,1.07,5.22a40.14,40.14,0,0,1-2.33,4.92c-.82,1.74,1.77,3.26,2.59,1.52Z" transform="translate(-15.5 -8.8)"/><polyline class="cls-1" points="542.5 656.2 540.5 659.2 541.5 662.2 543.5 657.2 543.5 655.2"/><path class="cls-39" d="M601.38,548.92a6.08,6.08,0,0,0-6.7,7.9,3.19,3.19,0,0,0,2.46,2.38,21.87,21.87,0,0,0-1,16c.64,1.91,1.54,3.73,2,5.69a28.16,28.16,0,0,1,.46,8.1,18.56,18.56,0,0,0,8.47-1.23c-1.58-1.88-1.79-3.57-1.37-6s1.38-5.7,1.88-8.09a19.42,19.42,0,0,0-3.19-15.06c.85-.23,1.18-1.24,1.34-2.11a9.4,9.4,0,0,0-.21-5.21,4,4,0,0,0-4.12-2.65" transform="translate(-15.5 -8.8)"/><path class="cls-36" d="M601.38,547.42c-7.13-.31-12.59,10.25-4.63,13.23l-.9-2.2a24.59,24.59,0,0,0-1.93,13.8,39.89,39.89,0,0,0,2.15,6.92,25.51,25.51,0,0,1,1.11,9.86,1.52,1.52,0,0,0,1.5,1.5,23.15,23.15,0,0,0,8.87-1.29,1.51,1.51,0,0,0,.89-2.2c-3.09-4.37.68-10.81,1-15.67a21.5,21.5,0,0,0-3.7-13.47l-.24,1.82c4.37-3.84,1.92-12.27-4-12.53-1.93-.08-1.92,2.92,0,3q4.93,3.3,1.93,7.41a1.51,1.51,0,0,0-.23,1.82c4,6.11,3.52,11.87,1.89,18.65-.92,3.83-1.62,7.1.78,10.48l.9-2.2a21.24,21.24,0,0,1-8.07,1.18l1.5,1.5c.36-10.25-6.06-18.9-1.74-29.07a1.54,1.54,0,0,0-.9-2.2q-1.69-8.09,3.84-7.34c1.93.08,1.92-2.92,0-3Z" transform="translate(-15.5 -8.8)"/><path class="cls-36" d="M598.81,580.38c1-2,2.48-4.32,3-6.54.43-1.92-.81-4.14-1.42-5.91a1.52,1.52,0,0,0-2.51-.67,21.8,21.8,0,0,0-2.88,4.19c-.9,1.71,1.69,3.22,2.59,1.51a18.72,18.72,0,0,1,2.41-3.58l-2.5-.66c.56,1.63,1.59,3.53,1.07,5.22a40.14,40.14,0,0,1-2.33,4.92c-.82,1.74,1.77,3.26,2.59,1.52Z" transform="translate(-15.5 -8.8)"/><polyline class="cls-1" points="581.5 565.2 579.5 568.2 580.5 571.2 582.5 566.2 582.5 564.2"/><path class="cls-39" d="M583.38,591.92a6.08,6.08,0,0,0-6.7,7.9,3.19,3.19,0,0,0,2.46,2.38,21.87,21.87,0,0,0-1,16c.64,1.91,1.54,3.73,2,5.69a28.16,28.16,0,0,1,.46,8.1,18.56,18.56,0,0,0,8.47-1.23c-1.58-1.88-1.79-3.57-1.37-6s1.38-5.7,1.88-8.09a19.42,19.42,0,0,0-3.19-15.06c.85-.23,1.18-1.24,1.34-2.11a9.4,9.4,0,0,0-.21-5.21,4,4,0,0,0-4.12-2.65" transform="translate(-15.5 -8.8)"/><path class="cls-36" d="M583.38,590.42c-7.13-.31-12.59,10.25-4.63,13.23l-.9-2.2a24.59,24.59,0,0,0-1.93,13.8,39.89,39.89,0,0,0,2.15,6.92,25.51,25.51,0,0,1,1.11,9.86,1.52,1.52,0,0,0,1.5,1.5,23.15,23.15,0,0,0,8.87-1.29,1.51,1.51,0,0,0,.89-2.2c-3.09-4.37.68-10.81,1-15.67a21.5,21.5,0,0,0-3.7-13.47l-.24,1.82c4.37-3.84,1.92-12.27-4-12.53-1.93-.08-1.92,2.92,0,3q4.93,3.3,1.93,7.41a1.51,1.51,0,0,0-.23,1.82c4,6.11,3.52,11.87,1.89,18.65-.92,3.83-1.62,7.1.78,10.48l.9-2.2a21.24,21.24,0,0,1-8.07,1.18l1.5,1.5c.36-10.25-6.06-18.9-1.74-29.07a1.54,1.54,0,0,0-.9-2.2q-1.69-8.09,3.84-7.34c1.93.08,1.92-2.92,0-3Z" transform="translate(-15.5 -8.8)"/><path class="cls-36" d="M580.81,623.38c1-2,2.48-4.32,3-6.54.43-1.92-.81-4.14-1.42-5.91a1.52,1.52,0,0,0-2.51-.67,21.8,21.8,0,0,0-2.88,4.19c-.9,1.71,1.69,3.22,2.59,1.51a18.72,18.72,0,0,1,2.41-3.58l-2.5-.66c.56,1.63,1.59,3.53,1.07,5.22a40.14,40.14,0,0,1-2.33,4.92c-.82,1.74,1.77,3.26,2.59,1.52Z" transform="translate(-15.5 -8.8)"/><polyline class="cls-1" points="563.5 608.2 561.5 611.2 562.5 614.2 564.5 609.2 564.5 607.2"/><path class="cls-39" d="M621.38,503.92a6.08,6.08,0,0,0-6.7,7.9,3.19,3.19,0,0,0,2.46,2.38,21.87,21.87,0,0,0-1,16c.64,1.91,1.54,3.73,2,5.69a28.16,28.16,0,0,1,.46,8.1,18.56,18.56,0,0,0,8.47-1.23c-1.58-1.88-1.79-3.57-1.37-6s1.38-5.7,1.88-8.09a19.42,19.42,0,0,0-3.19-15.06c.85-.23,1.18-1.24,1.34-2.11a9.4,9.4,0,0,0-.21-5.21,4,4,0,0,0-4.12-2.65" transform="translate(-15.5 -8.8)"/><path class="cls-36" d="M621.38,502.42c-7.13-.31-12.59,10.25-4.63,13.23l-.9-2.2a24.59,24.59,0,0,0-1.93,13.8,39.89,39.89,0,0,0,2.15,6.92,25.51,25.51,0,0,1,1.11,9.86,1.52,1.52,0,0,0,1.5,1.5,23.15,23.15,0,0,0,8.87-1.29,1.51,1.51,0,0,0,.89-2.2c-3.09-4.37.68-10.81,1-15.67a21.5,21.5,0,0,0-3.7-13.47l-.24,1.82c4.37-3.84,1.92-12.27-4-12.53-1.93-.08-1.92,2.92,0,3q4.93,3.3,1.93,7.41a1.51,1.51,0,0,0-.23,1.82c4,6.11,3.52,11.87,1.89,18.65-.92,3.83-1.62,7.1.78,10.48l.9-2.2a21.24,21.24,0,0,1-8.07,1.18l1.5,1.5c.36-10.25-6.06-18.9-1.74-29.07a1.54,1.54,0,0,0-.9-2.2q-1.69-8.08,3.84-7.34c1.93.08,1.92-2.92,0-3Z" transform="translate(-15.5 -8.8)"/><path class="cls-36" d="M618.81,535.38c1-2,2.48-4.32,3-6.54.43-1.92-.81-4.14-1.42-5.91a1.52,1.52,0,0,0-2.51-.67,21.8,21.8,0,0,0-2.88,4.19c-.9,1.71,1.69,3.22,2.59,1.51a18.72,18.72,0,0,1,2.41-3.58l-2.5-.66c.56,1.63,1.59,3.53,1.07,5.22a40.14,40.14,0,0,1-2.33,4.92c-.82,1.74,1.77,3.26,2.59,1.52Z" transform="translate(-15.5 -8.8)"/><polyline class="cls-1" points="601.5 520.2 599.5 523.2 600.5 526.2 602.5 521.2 602.5 519.2"/></g><g id="Ebene_7" data-name="Ebene 7"><path class="cls-36" d="M198.56,799.85c2.52.35,5.86.91,7.88,2.61,3,2.54-.45,5.49-2,8a97.2,97.2,0,0,0-6.94,13.74l2.5-.66c-4.68-4.53-18.54-2.09-10.78,4.71,2.71,2.37,7.54,4.38,10.54,1.37a4.18,4.18,0,0,0-1.18-6.86c-1.73-.83-3.26,1.76-1.51,2.59-.13,2.82-1.13,3.53-3,2.11q-2.82-.32-2.74-3.42c1-1.34,6.92,2,6.56,1.62a1.52,1.52,0,0,0,2.51-.66,93.23,93.23,0,0,1,6.17-12.27c1.38-2.28,4.4-5.27,4.85-8,.85-5.14-8.65-7.32-12.07-7.79-1.89-.26-2.71,2.63-.8,2.89Z" transform="translate(-15.5 -8.8)"/><path class="cls-36" d="M188.79,824.68a128.05,128.05,0,0,1,12.27-24.56c1.05-1.63-1.55-3.14-2.59-1.51a131.53,131.53,0,0,0-12.57,25.28c-.67,1.81,2.23,2.59,2.89.79Z" transform="translate(-15.5 -8.8)"/><path class="cls-36" d="M273.56,799.85c2.52.35,5.86.91,7.88,2.61,3,2.54-.45,5.49-2,8a97.2,97.2,0,0,0-6.94,13.74l2.5-.66c-4.68-4.53-18.54-2.09-10.78,4.71,2.71,2.37,7.54,4.38,10.54,1.37a4.18,4.18,0,0,0-1.18-6.86c-1.73-.83-3.26,1.76-1.51,2.59-.13,2.82-1.13,3.53-3,2.11q-2.82-.32-2.74-3.42c1-1.34,6.92,2,6.56,1.62a1.52,1.52,0,0,0,2.51-.66,93.23,93.23,0,0,1,6.17-12.27c1.38-2.28,4.4-5.27,4.85-8,.85-5.14-8.65-7.32-12.07-7.79-1.89-.26-2.71,2.63-.8,2.89Z" transform="translate(-15.5 -8.8)"/><path class="cls-36" d="M263.79,824.68a128.05,128.05,0,0,1,12.27-24.56c1.05-1.63-1.55-3.14-2.59-1.51a131.53,131.53,0,0,0-12.57,25.28c-.67,1.81,2.23,2.59,2.89.79Z" transform="translate(-15.5 -8.8)"/><path class="cls-36" d="M419.56,792.85c2.52.35,5.86.91,7.88,2.61,3,2.54-.45,5.49-2,8a97.2,97.2,0,0,0-6.94,13.74l2.5-.66c-4.68-4.53-18.54-2.09-10.78,4.71,2.71,2.37,7.54,4.38,10.54,1.37a4.18,4.18,0,0,0-1.18-6.86c-1.73-.83-3.26,1.76-1.51,2.59-.13,2.82-1.13,3.53-3,2.11q-2.82-.32-2.74-3.42c1-1.34,6.92,2,6.56,1.62a1.52,1.52,0,0,0,2.51-.66,93.23,93.23,0,0,1,6.17-12.27c1.38-2.28,4.4-5.27,4.85-8,.85-5.14-8.65-7.32-12.07-7.79-1.89-.26-2.71,2.63-.8,2.89Z" transform="translate(-15.5 -8.8)"/><path class="cls-36" d="M409.79,817.68a128.05,128.05,0,0,1,12.27-24.56c1.05-1.63-1.55-3.14-2.59-1.51a131.53,131.53,0,0,0-12.57,25.28c-.67,1.81,2.23,2.59,2.89.79Z" transform="translate(-15.5 -8.8)"/><path class="cls-36" d="M584.56,789.85c2.52.35,5.86.91,7.88,2.61,3,2.54-.45,5.49-2,8a97.2,97.2,0,0,0-6.94,13.74l2.5-.66c-4.68-4.53-18.54-2.09-10.78,4.71,2.71,2.37,7.54,4.38,10.54,1.37a4.18,4.18,0,0,0-1.18-6.86c-1.73-.83-3.26,1.76-1.51,2.59-.13,2.82-1.13,3.53-3,2.11q-2.82-.32-2.74-3.42c1-1.34,6.92,2,6.56,1.62a1.52,1.52,0,0,0,2.51-.66,93.23,93.23,0,0,1,6.17-12.27c1.38-2.28,4.4-5.27,4.85-8,.85-5.14-8.65-7.32-12.07-7.79-1.89-.26-2.71,2.63-.8,2.89Z" transform="translate(-15.5 -8.8)"/><path class="cls-36" d="M574.79,814.68a128.05,128.05,0,0,1,12.27-24.56c1.05-1.63-1.55-3.14-2.59-1.51a131.53,131.53,0,0,0-12.57,25.28c-.67,1.81,2.23,2.59,2.89.79Z" transform="translate(-15.5 -8.8)"/></g><g id="Ebene_8" data-name="Ebene 8"><path class="cls-36" d="M889.87,366.06c-.09-1.21-.61-2.32,0-3.44a2.78,2.78,0,0,1,3.49-1.36,5,5,0,0,1,2.69,2.05,3.7,3.7,0,0,1,.62,1.49c.07.64,0,2.38-1.18,1.79-1.72-.88-3.24,1.71-1.52,2.59a3.84,3.84,0,0,0,5.45-2.13c.92-2.62-.45-5.51-2.48-7.19s-5.11-2.58-7.38-1.18a8.12,8.12,0,0,0-2.62,3c-.89,1.67-.24,2.69-.11,4.39.14,1.92,3.14,1.93,3,0Z" transform="translate(-15.5 -8.8)"/><path class="cls-36" d="M900.16,366.18A131.6,131.6,0,0,1,903.37,352a1.5,1.5,0,0,0-2.89-.8,134.08,134.08,0,0,0-3.22,14.15c-.32,1.89,2.57,2.7,2.9.8Z" transform="translate(-15.5 -8.8)"/><path class="cls-36" d="M889.1,363a192,192,0,0,1,7.25-19.37c.77-1.75-1.81-3.28-2.59-1.51a202.34,202.34,0,0,0-7.56,20.09c-.58,1.84,2.32,2.63,2.9.79Z" transform="translate(-15.5 -8.8)"/><path class="cls-36" d="M896.34,342.5c1-3.07,5.78-2.19,5.34,1.12-.26,1.89,2.63,2.71,2.89.8a5.73,5.73,0,0,0-11.12-2.72c-.62,1.83,2.27,2.62,2.89.8Z" transform="translate(-15.5 -8.8)"/><path class="cls-36" d="M902,343.63a52.05,52.05,0,0,1-1.62,7.07c-.57,1.85,2.33,2.64,2.89.79a51.74,51.74,0,0,0,1.63-7.07c.29-1.88-2.6-2.7-2.9-.79Z" transform="translate(-15.5 -8.8)"/><path class="cls-36" d="M828.87,363.06c-.09-1.21-.61-2.32,0-3.44a2.78,2.78,0,0,1,3.49-1.36,5,5,0,0,1,2.69,2.05,3.7,3.7,0,0,1,.62,1.49c.07.64,0,2.38-1.18,1.79-1.72-.88-3.24,1.71-1.52,2.59a3.84,3.84,0,0,0,5.45-2.13c.92-2.62-.45-5.51-2.48-7.19s-5.11-2.58-7.38-1.18a8.12,8.12,0,0,0-2.62,3c-.89,1.67-.24,2.69-.11,4.39.14,1.92,3.14,1.93,3,0Z" transform="translate(-15.5 -8.8)"/><path class="cls-36" d="M839.16,363.18A131.6,131.6,0,0,1,842.37,349a1.5,1.5,0,0,0-2.89-.8,134.08,134.08,0,0,0-3.22,14.15c-.32,1.89,2.57,2.7,2.9.8Z" transform="translate(-15.5 -8.8)"/><path class="cls-36" d="M828.1,360a192,192,0,0,1,7.25-19.37c.77-1.75-1.81-3.28-2.59-1.51a202.34,202.34,0,0,0-7.56,20.09c-.58,1.84,2.32,2.63,2.9.79Z" transform="translate(-15.5 -8.8)"/><path class="cls-36" d="M835.34,339.5c1-3.07,5.78-2.19,5.34,1.12-.26,1.89,2.63,2.71,2.89.8a5.73,5.73,0,0,0-11.12-2.72c-.62,1.83,2.27,2.62,2.89.8Z" transform="translate(-15.5 -8.8)"/><path class="cls-36" d="M841,340.63a52.05,52.05,0,0,1-1.62,7.07c-.57,1.85,2.33,2.64,2.89.79a51.74,51.74,0,0,0,1.63-7.07c.29-1.88-2.6-2.7-2.9-.79Z" transform="translate(-15.5 -8.8)"/><path class="cls-36" d="M681.33,370c.08-1.47-.31-2.46.87-3.61a2.63,2.63,0,0,1,3.42-.41,5,5,0,0,1,2.24,2.3c.37.78.67,4.31-1.16,3.05-1.6-1.09-3.1,1.51-1.51,2.59a3.87,3.87,0,0,0,5.8-2.21,7.12,7.12,0,0,0-2.24-7.16c-1.78-1.64-4.87-2.87-7.15-1.52a8.73,8.73,0,0,0-2.85,2.82c-.87,1.47-.34,2.59-.42,4.15-.11,1.93,2.89,1.92,3,0Z" transform="translate(-15.5 -8.8)"/><path class="cls-36" d="M691.56,371.48a132.94,132.94,0,0,1,4.86-13.25c.75-1.76-1.83-3.29-2.59-1.52a136.11,136.11,0,0,0-5.16,14c-.57,1.85,2.33,2.64,2.89.79Z" transform="translate(-15.5 -8.8)"/><path class="cls-36" d="M680.86,367.23a194.87,194.87,0,0,1,9.88-18.62c1-1.65-1.59-3.16-2.59-1.51a195.91,195.91,0,0,0-9.88,18.61c-.81,1.74,1.78,3.27,2.59,1.52Z" transform="translate(-15.5 -8.8)"/><path class="cls-36" d="M690.67,347.87a2.74,2.74,0,0,1,5.17,1.81,1.5,1.5,0,0,0,2.89.8,5.72,5.72,0,0,0-10.65-4.13c-.84,1.73,1.75,3.26,2.59,1.52Z" transform="translate(-15.5 -8.8)"/><path class="cls-36" d="M696.12,349.72a50.67,50.67,0,0,1-2.37,6.44c-.79,1.75,1.79,3.27,2.59,1.52a55.5,55.5,0,0,0,2.67-7.16c.55-1.86-2.35-2.65-2.89-.8Z" transform="translate(-15.5 -8.8)"/><path class="cls-36" d="M533.05,373.82c.12-1.47-.23-2.45,1-3.58a2.66,2.66,0,0,1,3.43-.28,5.06,5.06,0,0,1,2.23,2.51c.32.83.41,4.11-1.34,2.84-1.57-1.14-3.07,1.46-1.52,2.59a3.88,3.88,0,0,0,5.84-2.13,7.15,7.15,0,0,0-2.1-7.21c-1.75-1.66-4.82-3-7.12-1.64a8.54,8.54,0,0,0-2.9,2.77c-.89,1.44-.39,2.58-.51,4.13-.15,1.93,2.85,1.92,3,0Z" transform="translate(-15.5 -8.8)"/><path class="cls-36" d="M543.26,375.52a133.54,133.54,0,0,1,5.18-13.13c.8-1.74-1.78-3.27-2.59-1.52a137.43,137.43,0,0,0-5.48,13.85c-.62,1.84,2.28,2.62,2.89.8Z" transform="translate(-15.5 -8.8)"/><path class="cls-36" d="M532.67,371A195.82,195.82,0,0,1,543,352.64c1-1.63-1.55-3.14-2.59-1.52a193.59,193.59,0,0,0-10.33,18.37c-.85,1.73,1.74,3.25,2.59,1.52Z" transform="translate(-15.5 -8.8)"/><path class="cls-36" d="M543,351.89a2.74,2.74,0,0,1,5.1,2c-.56,1.85,2.34,2.64,2.89.79a5.72,5.72,0,0,0-10.58-4.31c-.88,1.71,1.7,3.23,2.59,1.51Z" transform="translate(-15.5 -8.8)"/><path class="cls-36" d="M548.32,353.94a48.66,48.66,0,0,1-2.53,6.38c-.84,1.73,1.75,3.26,2.59,1.52a55,55,0,0,0,2.84-7.1c.58-1.85-2.31-2.63-2.9-.8Z" transform="translate(-15.5 -8.8)"/></g></svg>